<?xml version="1.0" encoding="UTF-8"?>
<!DOCTYPE svg PUBLIC "-//W3C//DTD SVG 1.1//EN" "http://www.w3.org/Graphics/SVG/1.1/DTD/svg11.dtd">
<svg version="1.2" width="100mm" height="100mm" viewBox="0 0 10000 10000" preserveAspectRatio="xMidYMid" fill-rule="evenodd" stroke-width="28.222" stroke-linejoin="round" xmlns="http://www.w3.org/2000/svg" xmlns:ooo="http://xml.openoffice.org/svg/export" xmlns:xlink="http://www.w3.org/1999/xlink" xmlns:presentation="http://sun.com/xmlns/staroffice/presentation" xmlns:smil="http://www.w3.org/2001/SMIL20/" xmlns:anim="urn:oasis:names:tc:opendocument:xmlns:animation:1.0" xmlns:svg="urn:oasis:names:tc:opendocument:xmlns:svg-compatible:1.0" xml:space="preserve">
 <defs class="ClipPathGroup">
  <clipPath id="presentation_clip_path" clipPathUnits="userSpaceOnUse">
   <rect x="0" y="0" width="10000" height="10000"/>
  </clipPath>
  <clipPath id="presentation_clip_path_shrink" clipPathUnits="userSpaceOnUse">
   <rect x="10" y="10" width="9980" height="9980"/>
  </clipPath>
 </defs>
 <defs class="TextShapeIndex">
  <g ooo:slide="id1" ooo:id-list="id3 id4 id5 id6 id7 id8 id9 id10 id11 id12"/>
 </defs>
 <defs class="EmbeddedBulletChars">
  <g id="bullet-char-template-57356" transform="scale(0.00048828125,-0.00048828125)">
   <path d="M 580,1141 L 1163,571 580,0 -4,571 580,1141 Z"/>
  </g>
  <g id="bullet-char-template-57354" transform="scale(0.00048828125,-0.00048828125)">
   <path d="M 8,1128 L 1137,1128 1137,0 8,0 8,1128 Z"/>
  </g>
  <g id="bullet-char-template-10146" transform="scale(0.00048828125,-0.00048828125)">
   <path d="M 174,0 L 602,739 174,1481 1456,739 174,0 Z M 1358,739 L 309,1346 659,739 1358,739 Z"/>
  </g>
  <g id="bullet-char-template-10132" transform="scale(0.00048828125,-0.00048828125)">
   <path d="M 2015,739 L 1276,0 717,0 1260,543 174,543 174,936 1260,936 717,1481 1274,1481 2015,739 Z"/>
  </g>
  <g id="bullet-char-template-10007" transform="scale(0.00048828125,-0.00048828125)">
   <path d="M 0,-2 C -7,14 -16,27 -25,37 L 356,567 C 262,823 215,952 215,954 215,979 228,992 255,992 264,992 276,990 289,987 310,991 331,999 354,1012 L 381,999 492,748 772,1049 836,1024 860,1049 C 881,1039 901,1025 922,1006 886,937 835,863 770,784 769,783 710,716 594,584 L 774,223 C 774,196 753,168 711,139 L 727,119 C 717,90 699,76 672,76 641,76 570,178 457,381 L 164,-76 C 142,-110 111,-127 72,-127 30,-127 9,-110 8,-76 1,-67 -2,-52 -2,-32 -2,-23 -1,-13 0,-2 Z"/>
  </g>
  <g id="bullet-char-template-10004" transform="scale(0.00048828125,-0.00048828125)">
   <path d="M 285,-33 C 182,-33 111,30 74,156 52,228 41,333 41,471 41,549 55,616 82,672 116,743 169,778 240,778 293,778 328,747 346,684 L 369,508 C 377,444 397,411 428,410 L 1163,1116 C 1174,1127 1196,1133 1229,1133 1271,1133 1292,1118 1292,1087 L 1292,965 C 1292,929 1282,901 1262,881 L 442,47 C 390,-6 338,-33 285,-33 Z"/>
  </g>
  <g id="bullet-char-template-9679" transform="scale(0.00048828125,-0.00048828125)">
   <path d="M 813,0 C 632,0 489,54 383,161 276,268 223,411 223,592 223,773 276,916 383,1023 489,1130 632,1184 813,1184 992,1184 1136,1130 1245,1023 1353,916 1407,772 1407,592 1407,412 1353,268 1245,161 1136,54 992,0 813,0 Z"/>
  </g>
  <g id="bullet-char-template-8226" transform="scale(0.00048828125,-0.00048828125)">
   <path d="M 346,457 C 273,457 209,483 155,535 101,586 74,649 74,723 74,796 101,859 155,911 209,963 273,989 346,989 419,989 480,963 531,910 582,859 608,796 608,723 608,648 583,586 532,535 482,483 420,457 346,457 Z"/>
  </g>
  <g id="bullet-char-template-8211" transform="scale(0.00048828125,-0.00048828125)">
   <path d="M -4,459 L 1135,459 1135,606 -4,606 -4,459 Z"/>
  </g>
  <g id="bullet-char-template-61548" transform="scale(0.00048828125,-0.00048828125)">
   <path d="M 173,740 C 173,903 231,1043 346,1159 462,1274 601,1332 765,1332 928,1332 1067,1274 1183,1159 1299,1043 1357,903 1357,740 1357,577 1299,437 1183,322 1067,206 928,148 765,148 601,148 462,206 346,322 231,437 173,577 173,740 Z"/>
  </g>
 </defs>
 <g>
  <g id="id2" class="Master_Slide">
   <g id="bg-id2" class="Background"/>
   <g id="bo-id2" class="BackgroundObjects"/>
  </g>
 </g>
 <g class="SlideGroup">
  <g>
   <g id="container-id1">
    <g id="id1" class="Slide" clip-path="url(#presentation_clip_path)">
     <g class="Page">
      <g class="com.sun.star.drawing.CustomShape">
       <g id="id3">
        <rect class="BoundingBox" stroke="none" fill="none" x="1000" y="7490" width="8003" height="1527"/>
        <path fill="rgb(170,81,2)" stroke="none" d="M 8999,7741 L 8999,7741 C 8999,7697 8987,7654 8965,7616 8943,7578 8911,7546 8873,7524 8835,7502 8791,7491 8747,7491 L 1251,7509 1251,7509 C 1207,7509 1164,7521 1126,7543 1088,7565 1056,7597 1034,7635 1012,7673 1001,7717 1001,7761 L 1003,8765 1003,8765 C 1003,8809 1015,8852 1037,8890 1059,8928 1091,8960 1129,8982 1167,9004 1211,9015 1255,9015 L 8751,8997 8751,8997 8751,8997 C 8795,8997 8838,8985 8876,8963 8914,8941 8946,8909 8968,8871 8990,8833 9001,8789 9001,8745 L 8999,7741 Z"/>
       </g>
      </g>
      <g class="Group">
       <g class="com.sun.star.drawing.CustomShape">
        <g id="id4">
         <rect class="BoundingBox" stroke="none" fill="none" x="947" y="1396" width="2107" height="6109"/>
         <path fill="rgb(255,0,0)" stroke="none" d="M 1333,1450 L 1333,1450 C 1275,1450 1217,1465 1167,1495 1116,1524 1074,1566 1045,1617 1015,1667 1000,1725 1000,1783 L 1000,7117 1000,7118 C 1000,7176 1015,7234 1045,7284 1074,7335 1116,7377 1167,7406 1217,7436 1275,7451 1333,7451 L 2666,7451 2667,7451 C 2725,7451 2783,7436 2833,7406 2884,7377 2926,7335 2955,7284 2985,7234 3000,7176 3000,7118 L 3000,1783 3000,1783 3000,1783 C 3000,1725 2985,1667 2955,1617 2926,1566 2884,1524 2833,1495 2783,1465 2725,1450 2667,1450 L 1333,1450 Z"/>
         <path fill="none" stroke="rgb(0,0,0)" stroke-width="106" stroke-linejoin="round" d="M 1333,1450 L 1333,1450 C 1275,1450 1217,1465 1167,1495 1116,1524 1074,1566 1045,1617 1015,1667 1000,1725 1000,1783 L 1000,7117 1000,7118 C 1000,7176 1015,7234 1045,7284 1074,7335 1116,7377 1167,7406 1217,7436 1275,7451 1333,7451 L 2666,7451 2667,7451 C 2725,7451 2783,7436 2833,7406 2884,7377 2926,7335 2955,7284 2985,7234 3000,7176 3000,7118 L 3000,1783 3000,1783 3000,1783 C 3000,1725 2985,1667 2955,1617 2926,1566 2884,1524 2833,1495 2783,1465 2725,1450 2667,1450 L 1333,1450 Z"/>
        </g>
       </g>
       <g class="com.sun.star.drawing.CustomShape">
        <g id="id5">
         <rect class="BoundingBox" stroke="none" fill="none" x="1000" y="6200" width="2001" height="751"/>
         <path fill="rgb(0,0,0)" stroke="none" d="M 2000,6950 L 1000,6950 1000,6200 3000,6200 3000,6950 2000,6950 Z"/>
        </g>
       </g>
       <g class="com.sun.star.drawing.CustomShape">
        <g id="id6">
         <rect class="BoundingBox" stroke="none" fill="none" x="1000" y="1950" width="2001" height="751"/>
         <path fill="rgb(0,0,0)" stroke="none" d="M 2000,2700 L 1000,2700 1000,1950 3000,1950 3000,2700 2000,2700 Z"/>
        </g>
       </g>
      </g>
      <g class="Group">
       <g class="com.sun.star.drawing.CustomShape">
        <g id="id7">
         <rect class="BoundingBox" stroke="none" fill="none" x="3047" y="1396" width="2108" height="6109"/>
         <path fill="rgb(129,212,26)" stroke="none" d="M 3433,1450 L 3433,1450 C 3375,1450 3317,1465 3267,1495 3216,1524 3174,1566 3145,1617 3115,1667 3100,1725 3100,1783 L 3100,7117 3100,7118 C 3100,7176 3115,7234 3145,7284 3174,7335 3216,7377 3267,7406 3317,7436 3375,7451 3433,7451 L 4766,7451 4767,7451 C 4825,7451 4883,7436 4933,7406 4984,7377 5026,7335 5055,7284 5085,7234 5100,7176 5100,7118 L 5100,1783 5100,1783 5100,1783 C 5100,1725 5085,1667 5055,1617 5026,1566 4984,1524 4933,1495 4883,1465 4825,1450 4767,1450 L 3433,1450 Z"/>
         <path fill="none" stroke="rgb(0,0,0)" stroke-width="106" stroke-linejoin="round" d="M 3433,1450 L 3433,1450 C 3375,1450 3317,1465 3267,1495 3216,1524 3174,1566 3145,1617 3115,1667 3100,1725 3100,1783 L 3100,7117 3100,7118 C 3100,7176 3115,7234 3145,7284 3174,7335 3216,7377 3267,7406 3317,7436 3375,7451 3433,7451 L 4766,7451 4767,7451 C 4825,7451 4883,7436 4933,7406 4984,7377 5026,7335 5055,7284 5085,7234 5100,7176 5100,7118 L 5100,1783 5100,1783 5100,1783 C 5100,1725 5085,1667 5055,1617 5026,1566 4984,1524 4933,1495 4883,1465 4825,1450 4767,1450 L 3433,1450 Z"/>
        </g>
       </g>
       <g class="com.sun.star.drawing.CustomShape">
        <g id="id8">
         <rect class="BoundingBox" stroke="none" fill="none" x="3100" y="6200" width="2001" height="751"/>
         <path fill="rgb(0,0,0)" stroke="none" d="M 4100,6950 L 3100,6950 3100,6200 5100,6200 5100,6950 4100,6950 Z"/>
        </g>
       </g>
       <g class="com.sun.star.drawing.CustomShape">
        <g id="id9">
         <rect class="BoundingBox" stroke="none" fill="none" x="3100" y="1950" width="2001" height="751"/>
         <path fill="rgb(0,0,0)" stroke="none" d="M 4100,2700 L 3100,2700 3100,1950 5100,1950 5100,2700 4100,2700 Z"/>
        </g>
       </g>
      </g>
      <g class="Group">
       <g class="com.sun.star.drawing.CustomShape">
        <g id="id10">
         <rect class="BoundingBox" stroke="none" fill="none" x="5150" y="1250" width="3851" height="6244"/>
         <path fill="rgb(8,113,225)" stroke="none" d="M 5423,1779 L 5423,1779 C 5368,1799 5320,1833 5282,1878 5244,1923 5219,1977 5209,2035 5199,2092 5204,2152 5224,2207 L 7046,7219 7047,7220 C 7067,7275 7101,7324 7146,7361 7190,7399 7244,7424 7302,7434 7360,7444 7419,7439 7474,7419 L 8726,6964 8727,6964 C 8782,6944 8831,6909 8868,6865 8906,6820 8931,6766 8941,6708 8951,6651 8946,6591 8926,6536 L 7104,1523 7104,1523 7104,1523 C 7084,1468 7050,1419 7005,1382 6960,1344 6906,1319 6848,1309 6791,1299 6731,1304 6676,1324 L 5423,1779 Z"/>
         <path fill="none" stroke="rgb(0,0,0)" stroke-width="106" stroke-linejoin="round" d="M 5423,1779 L 5423,1779 C 5368,1799 5320,1833 5282,1878 5244,1923 5219,1977 5209,2035 5199,2092 5204,2152 5224,2207 L 7046,7219 7047,7220 C 7067,7275 7101,7324 7146,7361 7190,7399 7244,7424 7302,7434 7360,7444 7419,7439 7474,7419 L 8726,6964 8727,6964 C 8782,6944 8831,6909 8868,6865 8906,6820 8931,6766 8941,6708 8951,6651 8946,6591 8926,6536 L 7104,1523 7104,1523 7104,1523 C 7084,1468 7050,1419 7005,1382 6960,1344 6906,1319 6848,1309 6791,1299 6731,1304 6676,1324 L 5423,1779 Z"/>
        </g>
       </g>
       <g class="com.sun.star.drawing.CustomShape">
        <g id="id11">
         <rect class="BoundingBox" stroke="none" fill="none" x="6733" y="5672" width="2137" height="1390"/>
         <path fill="rgb(0,0,0)" stroke="none" d="M 7929,6719 L 6989,7061 6733,6356 8613,5673 8869,6377 7929,6719 Z"/>
        </g>
       </g>
       <g class="com.sun.star.drawing.CustomShape">
        <g id="id12">
         <rect class="BoundingBox" stroke="none" fill="none" x="5280" y="1678" width="2137" height="1390"/>
         <path fill="rgb(0,0,0)" stroke="none" d="M 6476,2725 L 5536,3067 5280,2362 7160,1679 7416,2383 6476,2725 Z"/>
        </g>
       </g>
      </g>
     </g>
    </g>
   </g>
  </g>
 </g>
</svg>