<?xml version="1.0" encoding="UTF-8"?>
<!DOCTYPE svg PUBLIC "-//W3C//DTD SVG 1.1//EN" "http://www.w3.org/Graphics/SVG/1.1/DTD/svg11.dtd">
<svg version="1.2" width="100mm" height="100mm" viewBox="0 0 10000 10000" preserveAspectRatio="xMidYMid" fill-rule="evenodd" stroke-width="28.222" stroke-linejoin="round" xmlns="http://www.w3.org/2000/svg" xmlns:ooo="http://xml.openoffice.org/svg/export" xmlns:xlink="http://www.w3.org/1999/xlink" xmlns:presentation="http://sun.com/xmlns/staroffice/presentation" xmlns:smil="http://www.w3.org/2001/SMIL20/" xmlns:anim="urn:oasis:names:tc:opendocument:xmlns:animation:1.0" xmlns:svg="urn:oasis:names:tc:opendocument:xmlns:svg-compatible:1.0" xml:space="preserve">
 <defs class="ClipPathGroup">
  <clipPath id="presentation_clip_path" clipPathUnits="userSpaceOnUse">
   <rect x="0" y="0" width="10000" height="10000"/>
  </clipPath>
  <clipPath id="presentation_clip_path_shrink" clipPathUnits="userSpaceOnUse">
   <rect x="10" y="10" width="9980" height="9980"/>
  </clipPath>
 </defs>
 <defs class="TextShapeIndex">
  <g ooo:slide="id1" ooo:id-list="id3 id4"/>
 </defs>
 <defs class="EmbeddedBulletChars">
  <g id="bullet-char-template-57356" transform="scale(0.00048828125,-0.00048828125)">
   <path d="M 580,1141 L 1163,571 580,0 -4,571 580,1141 Z"/>
  </g>
  <g id="bullet-char-template-57354" transform="scale(0.00048828125,-0.00048828125)">
   <path d="M 8,1128 L 1137,1128 1137,0 8,0 8,1128 Z"/>
  </g>
  <g id="bullet-char-template-10146" transform="scale(0.00048828125,-0.00048828125)">
   <path d="M 174,0 L 602,739 174,1481 1456,739 174,0 Z M 1358,739 L 309,1346 659,739 1358,739 Z"/>
  </g>
  <g id="bullet-char-template-10132" transform="scale(0.00048828125,-0.00048828125)">
   <path d="M 2015,739 L 1276,0 717,0 1260,543 174,543 174,936 1260,936 717,1481 1274,1481 2015,739 Z"/>
  </g>
  <g id="bullet-char-template-10007" transform="scale(0.00048828125,-0.00048828125)">
   <path d="M 0,-2 C -7,14 -16,27 -25,37 L 356,567 C 262,823 215,952 215,954 215,979 228,992 255,992 264,992 276,990 289,987 310,991 331,999 354,1012 L 381,999 492,748 772,1049 836,1024 860,1049 C 881,1039 901,1025 922,1006 886,937 835,863 770,784 769,783 710,716 594,584 L 774,223 C 774,196 753,168 711,139 L 727,119 C 717,90 699,76 672,76 641,76 570,178 457,381 L 164,-76 C 142,-110 111,-127 72,-127 30,-127 9,-110 8,-76 1,-67 -2,-52 -2,-32 -2,-23 -1,-13 0,-2 Z"/>
  </g>
  <g id="bullet-char-template-10004" transform="scale(0.00048828125,-0.00048828125)">
   <path d="M 285,-33 C 182,-33 111,30 74,156 52,228 41,333 41,471 41,549 55,616 82,672 116,743 169,778 240,778 293,778 328,747 346,684 L 369,508 C 377,444 397,411 428,410 L 1163,1116 C 1174,1127 1196,1133 1229,1133 1271,1133 1292,1118 1292,1087 L 1292,965 C 1292,929 1282,901 1262,881 L 442,47 C 390,-6 338,-33 285,-33 Z"/>
  </g>
  <g id="bullet-char-template-9679" transform="scale(0.00048828125,-0.00048828125)">
   <path d="M 813,0 C 632,0 489,54 383,161 276,268 223,411 223,592 223,773 276,916 383,1023 489,1130 632,1184 813,1184 992,1184 1136,1130 1245,1023 1353,916 1407,772 1407,592 1407,412 1353,268 1245,161 1136,54 992,0 813,0 Z"/>
  </g>
  <g id="bullet-char-template-8226" transform="scale(0.00048828125,-0.00048828125)">
   <path d="M 346,457 C 273,457 209,483 155,535 101,586 74,649 74,723 74,796 101,859 155,911 209,963 273,989 346,989 419,989 480,963 531,910 582,859 608,796 608,723 608,648 583,586 532,535 482,483 420,457 346,457 Z"/>
  </g>
  <g id="bullet-char-template-8211" transform="scale(0.00048828125,-0.00048828125)">
   <path d="M -4,459 L 1135,459 1135,606 -4,606 -4,459 Z"/>
  </g>
  <g id="bullet-char-template-61548" transform="scale(0.00048828125,-0.00048828125)">
   <path d="M 173,740 C 173,903 231,1043 346,1159 462,1274 601,1332 765,1332 928,1332 1067,1274 1183,1159 1299,1043 1357,903 1357,740 1357,577 1299,437 1183,322 1067,206 928,148 765,148 601,148 462,206 346,322 231,437 173,577 173,740 Z"/>
  </g>
 </defs>
 <g>
  <g id="id2" class="Master_Slide">
   <g id="bg-id2" class="Background"/>
   <g id="bo-id2" class="BackgroundObjects"/>
  </g>
 </g>
 <g class="SlideGroup">
  <g>
   <g id="container-id1">
    <g id="id1" class="Slide" clip-path="url(#presentation_clip_path)">
     <g class="Page">
      <g class="Group"/>
      <g class="Group"/>
      <g class="Group">
       <g class="com.sun.star.drawing.CustomShape">
        <g id="id3">
         <rect class="BoundingBox" stroke="none" fill="none" x="2644" y="2120" width="4995" height="3390"/>
         <path fill="rgb(30,144,255)" stroke="none" d="M 5957,4350 L 5956,4296 5952,4242 5945,4189 5936,4136 5924,4083 5909,4031 5892,3980 5872,3930 5850,3881 5825,3833 5798,3786 5769,3740 5737,3697 5704,3655 5668,3614 5630,3575 5591,3539 5550,3504 5507,3471 5462,3441 5416,3413 5369,3387 5320,3364 5270,3343 5220,3324 5168,3308 5116,3295 5063,3284 5010,3276 4956,3271 4902,3268 4848,3268 4794,3271 4740,3276 4687,3284 4634,3295 4582,3308 4530,3324 4480,3343 4430,3364 4381,3387 4334,3413 4288,3441 4243,3471 4200,3504 4159,3539 4120,3575 4082,3614 4046,3655 4013,3697 3981,3740 3952,3786 3925,3833 3900,3881 3878,3930 3858,3980 3841,4031 3826,4083 3814,4136 3805,4189 3798,4242 3794,4296 3793,4350 2750,4350 2753,4244 2761,4138 2774,4033 2792,3929 2816,3826 2844,3724 2878,3623 2917,3525 2960,3428 3009,3334 3062,3242 3119,3153 3181,3067 3247,2984 3317,2905 3391,2829 3469,2757 3550,2689 3635,2625 3722,2565 3813,2510 3906,2459 4001,2413 4099,2372 4198,2336 4299,2304 4402,2278 4506,2257 4611,2241 4716,2231 4822,2226 4928,2226 5034,2231 5139,2241 5244,2257 5348,2278 5451,2304 5552,2336 5651,2372 5749,2413 5844,2459 5938,2510 6028,2565 6115,2625 6200,2689 6281,2757 6359,2829 6433,2905 6503,2984 6569,3067 6631,3153 6688,3242 6741,3334 6790,3428 6833,3525 6872,3623 6906,3724 6934,3826 6958,3929 6976,4033 6989,4138 6997,4244 7000,4350 7532,4350 6479,5403 5426,4350 5957,4350 Z "/>
         <path fill="none" stroke="rgb(0,0,0)" stroke-width="212" stroke-linejoin="round" d="M 5957,4350 L 5956,4296 5952,4242 5945,4189 5936,4136 5924,4083 5909,4031 5892,3980 5872,3930 5850,3881 5825,3833 5798,3786 5769,3740 5737,3697 5704,3655 5668,3614 5630,3575 5591,3539 5550,3504 5507,3471 5462,3441 5416,3413 5369,3387 5320,3364 5270,3343 5220,3324 5168,3308 5116,3295 5063,3284 5010,3276 4956,3271 4902,3268 4848,3268 4794,3271 4740,3276 4687,3284 4634,3295 4582,3308 4530,3324 4480,3343 4430,3364 4381,3387 4334,3413 4288,3441 4243,3471 4200,3504 4159,3539 4120,3575 4082,3614 4046,3655 4013,3697 3981,3740 3952,3786 3925,3833 3900,3881 3878,3930 3858,3980 3841,4031 3826,4083 3814,4136 3805,4189 3798,4242 3794,4296 3793,4350 2750,4350 2753,4244 2761,4138 2774,4033 2792,3929 2816,3826 2844,3724 2878,3623 2917,3525 2960,3428 3009,3334 3062,3242 3119,3153 3181,3067 3247,2984 3317,2905 3391,2829 3469,2757 3550,2689 3635,2625 3722,2565 3813,2510 3906,2459 4001,2413 4099,2372 4198,2336 4299,2304 4402,2278 4506,2257 4611,2241 4716,2231 4822,2226 4928,2226 5034,2231 5139,2241 5244,2257 5348,2278 5451,2304 5552,2336 5651,2372 5749,2413 5844,2459 5938,2510 6028,2565 6115,2625 6200,2689 6281,2757 6359,2829 6433,2905 6503,2984 6569,3067 6631,3153 6688,3242 6741,3334 6790,3428 6833,3525 6872,3623 6906,3724 6934,3826 6958,3929 6976,4033 6989,4138 6997,4244 7000,4350 7532,4350 6479,5403 5426,4350 5957,4350 Z "/>
        </g>
       </g>
       <g class="com.sun.star.drawing.CustomShape">
        <g id="id4">
         <rect class="BoundingBox" stroke="none" fill="none" x="2362" y="4491" width="4995" height="3391"/>
         <path fill="rgb(30,144,255)" stroke="none" d="M 4043,5650 L 4044,5704 4048,5758 4055,5811 4064,5864 4076,5917 4091,5969 4108,6020 4128,6070 4150,6119 4175,6167 4202,6214 4231,6260 4263,6303 4296,6345 4332,6386 4370,6425 4409,6461 4450,6496 4493,6529 4538,6559 4584,6587 4631,6613 4680,6636 4730,6657 4780,6676 4832,6692 4884,6705 4937,6716 4990,6724 5044,6729 5098,6732 5152,6732 5206,6729 5260,6724 5313,6716 5366,6705 5418,6692 5470,6676 5520,6657 5570,6636 5619,6613 5666,6587 5712,6559 5757,6529 5800,6496 5841,6461 5880,6425 5918,6386 5954,6345 5987,6303 6019,6260 6048,6214 6075,6167 6100,6119 6122,6070 6142,6020 6159,5969 6174,5917 6186,5864 6195,5811 6202,5758 6206,5704 6207,5650 7250,5650 7247,5756 7239,5862 7226,5967 7208,6071 7184,6174 7156,6276 7122,6377 7083,6475 7040,6572 6991,6666 6938,6758 6881,6847 6819,6933 6753,7016 6683,7095 6609,7171 6531,7243 6450,7311 6365,7375 6278,7435 6187,7490 6094,7541 5999,7587 5901,7628 5802,7664 5701,7696 5598,7722 5494,7743 5389,7759 5284,7769 5178,7774 5072,7774 4966,7769 4861,7759 4756,7743 4652,7722 4549,7696 4448,7664 4349,7628 4251,7587 4156,7541 4062,7490 3972,7435 3885,7375 3800,7311 3719,7243 3641,7171 3567,7095 3497,7016 3431,6933 3369,6847 3312,6758 3259,6666 3210,6572 3167,6475 3128,6377 3094,6276 3066,6174 3042,6071 3024,5967 3011,5862 3003,5756 3000,5650 2468,5650 3521,4597 4574,5650 4043,5650 Z "/>
         <path fill="none" stroke="rgb(0,0,0)" stroke-width="212" stroke-linejoin="round" d="M 4043,5650 L 4044,5704 4048,5758 4055,5811 4064,5864 4076,5917 4091,5969 4108,6020 4128,6070 4150,6119 4175,6167 4202,6214 4231,6260 4263,6303 4296,6345 4332,6386 4370,6425 4409,6461 4450,6496 4493,6529 4538,6559 4584,6587 4631,6613 4680,6636 4730,6657 4780,6676 4832,6692 4884,6705 4937,6716 4990,6724 5044,6729 5098,6732 5152,6732 5206,6729 5260,6724 5313,6716 5366,6705 5418,6692 5470,6676 5520,6657 5570,6636 5619,6613 5666,6587 5712,6559 5757,6529 5800,6496 5841,6461 5880,6425 5918,6386 5954,6345 5987,6303 6019,6260 6048,6214 6075,6167 6100,6119 6122,6070 6142,6020 6159,5969 6174,5917 6186,5864 6195,5811 6202,5758 6206,5704 6207,5650 7250,5650 7247,5756 7239,5862 7226,5967 7208,6071 7184,6174 7156,6276 7122,6377 7083,6475 7040,6572 6991,6666 6938,6758 6881,6847 6819,6933 6753,7016 6683,7095 6609,7171 6531,7243 6450,7311 6365,7375 6278,7435 6187,7490 6094,7541 5999,7587 5901,7628 5802,7664 5701,7696 5598,7722 5494,7743 5389,7759 5284,7769 5178,7774 5072,7774 4966,7769 4861,7759 4756,7743 4652,7722 4549,7696 4448,7664 4349,7628 4251,7587 4156,7541 4062,7490 3972,7435 3885,7375 3800,7311 3719,7243 3641,7171 3567,7095 3497,7016 3431,6933 3369,6847 3312,6758 3259,6666 3210,6572 3167,6475 3128,6377 3094,6276 3066,6174 3042,6071 3024,5967 3011,5862 3003,5756 3000,5650 2468,5650 3521,4597 4574,5650 4043,5650 Z "/>
        </g>
       </g>
      </g>
     </g>
    </g>
   </g>
  </g>
 </g>
</svg>