<?xml version="1.0" encoding="UTF-8"?>
<!DOCTYPE svg PUBLIC "-//W3C//DTD SVG 1.1//EN" "http://www.w3.org/Graphics/SVG/1.1/DTD/svg11.dtd">
<svg version="1.2" width="100mm" height="100mm" viewBox="0 0 10000 10000" preserveAspectRatio="xMidYMid" fill-rule="evenodd" stroke-width="28.222" stroke-linejoin="round" xmlns="http://www.w3.org/2000/svg" xmlns:ooo="http://xml.openoffice.org/svg/export" xmlns:xlink="http://www.w3.org/1999/xlink" xmlns:presentation="http://sun.com/xmlns/staroffice/presentation" xmlns:smil="http://www.w3.org/2001/SMIL20/" xmlns:anim="urn:oasis:names:tc:opendocument:xmlns:animation:1.0" xmlns:svg="urn:oasis:names:tc:opendocument:xmlns:svg-compatible:1.0" xml:space="preserve">
 <defs class="ClipPathGroup">
  <clipPath id="presentation_clip_path" clipPathUnits="userSpaceOnUse">
   <rect x="0" y="0" width="10000" height="10000"/>
  </clipPath>
  <clipPath id="presentation_clip_path_shrink" clipPathUnits="userSpaceOnUse">
   <rect x="10" y="10" width="9980" height="9980"/>
  </clipPath>
 </defs>
 <defs class="TextShapeIndex">
  <g ooo:slide="id1" ooo:id-list="id3 id4 id5 id6 id7 id8 id9 id10 id11 id12 id13 id14 id15 id16"/>
 </defs>
 <defs class="EmbeddedBulletChars">
  <g id="bullet-char-template-57356" transform="scale(0.00048828125,-0.00048828125)">
   <path d="M 580,1141 L 1163,571 580,0 -4,571 580,1141 Z"/>
  </g>
  <g id="bullet-char-template-57354" transform="scale(0.00048828125,-0.00048828125)">
   <path d="M 8,1128 L 1137,1128 1137,0 8,0 8,1128 Z"/>
  </g>
  <g id="bullet-char-template-10146" transform="scale(0.00048828125,-0.00048828125)">
   <path d="M 174,0 L 602,739 174,1481 1456,739 174,0 Z M 1358,739 L 309,1346 659,739 1358,739 Z"/>
  </g>
  <g id="bullet-char-template-10132" transform="scale(0.00048828125,-0.00048828125)">
   <path d="M 2015,739 L 1276,0 717,0 1260,543 174,543 174,936 1260,936 717,1481 1274,1481 2015,739 Z"/>
  </g>
  <g id="bullet-char-template-10007" transform="scale(0.00048828125,-0.00048828125)">
   <path d="M 0,-2 C -7,14 -16,27 -25,37 L 356,567 C 262,823 215,952 215,954 215,979 228,992 255,992 264,992 276,990 289,987 310,991 331,999 354,1012 L 381,999 492,748 772,1049 836,1024 860,1049 C 881,1039 901,1025 922,1006 886,937 835,863 770,784 769,783 710,716 594,584 L 774,223 C 774,196 753,168 711,139 L 727,119 C 717,90 699,76 672,76 641,76 570,178 457,381 L 164,-76 C 142,-110 111,-127 72,-127 30,-127 9,-110 8,-76 1,-67 -2,-52 -2,-32 -2,-23 -1,-13 0,-2 Z"/>
  </g>
  <g id="bullet-char-template-10004" transform="scale(0.00048828125,-0.00048828125)">
   <path d="M 285,-33 C 182,-33 111,30 74,156 52,228 41,333 41,471 41,549 55,616 82,672 116,743 169,778 240,778 293,778 328,747 346,684 L 369,508 C 377,444 397,411 428,410 L 1163,1116 C 1174,1127 1196,1133 1229,1133 1271,1133 1292,1118 1292,1087 L 1292,965 C 1292,929 1282,901 1262,881 L 442,47 C 390,-6 338,-33 285,-33 Z"/>
  </g>
  <g id="bullet-char-template-9679" transform="scale(0.00048828125,-0.00048828125)">
   <path d="M 813,0 C 632,0 489,54 383,161 276,268 223,411 223,592 223,773 276,916 383,1023 489,1130 632,1184 813,1184 992,1184 1136,1130 1245,1023 1353,916 1407,772 1407,592 1407,412 1353,268 1245,161 1136,54 992,0 813,0 Z"/>
  </g>
  <g id="bullet-char-template-8226" transform="scale(0.00048828125,-0.00048828125)">
   <path d="M 346,457 C 273,457 209,483 155,535 101,586 74,649 74,723 74,796 101,859 155,911 209,963 273,989 346,989 419,989 480,963 531,910 582,859 608,796 608,723 608,648 583,586 532,535 482,483 420,457 346,457 Z"/>
  </g>
  <g id="bullet-char-template-8211" transform="scale(0.00048828125,-0.00048828125)">
   <path d="M -4,459 L 1135,459 1135,606 -4,606 -4,459 Z"/>
  </g>
  <g id="bullet-char-template-61548" transform="scale(0.00048828125,-0.00048828125)">
   <path d="M 173,740 C 173,903 231,1043 346,1159 462,1274 601,1332 765,1332 928,1332 1067,1274 1183,1159 1299,1043 1357,903 1357,740 1357,577 1299,437 1183,322 1067,206 928,148 765,148 601,148 462,206 346,322 231,437 173,577 173,740 Z"/>
  </g>
 </defs>
 <g>
  <g id="id2" class="Master_Slide">
   <g id="bg-id2" class="Background"/>
   <g id="bo-id2" class="BackgroundObjects"/>
  </g>
 </g>
 <g class="SlideGroup">
  <g>
   <g id="container-id1">
    <g id="id1" class="Slide" clip-path="url(#presentation_clip_path)">
     <g class="Page">
      <g class="com.sun.star.drawing.CustomShape">
       <g id="id3">
        <rect class="BoundingBox" stroke="none" fill="none" x="894" y="894" width="1214" height="1214"/>
        <path fill="rgb(211,211,211)" stroke="none" d="M 2001,1501 C 2001,1588 1978,1675 1934,1751 1890,1827 1827,1890 1751,1934 1675,1978 1588,2001 1501,2001 1413,2001 1326,1978 1250,1934 1174,1890 1111,1827 1067,1751 1023,1675 1000,1588 1000,1501 1000,1413 1023,1326 1067,1250 1111,1174 1174,1111 1250,1067 1326,1023 1413,1000 1500,1000 1588,1000 1675,1023 1751,1067 1827,1111 1890,1174 1934,1250 1978,1326 2001,1413 2001,1500 L 2001,1501 Z "/>
        <path fill="none" stroke="rgb(0,0,0)" stroke-width="212" stroke-linejoin="round" d="M 2001,1501 C 2001,1588 1978,1675 1934,1751 1890,1827 1827,1890 1751,1934 1675,1978 1588,2001 1501,2001 1413,2001 1326,1978 1250,1934 1174,1890 1111,1827 1067,1751 1023,1675 1000,1588 1000,1501 1000,1413 1023,1326 1067,1250 1111,1174 1174,1111 1250,1067 1326,1023 1413,1000 1500,1000 1588,1000 1675,1023 1751,1067 1827,1111 1890,1174 1934,1250 1978,1326 2001,1413 2001,1500 L 2001,1501 Z "/>
       </g>
      </g>
      <g class="com.sun.star.drawing.CustomShape">
       <g id="id4">
        <rect class="BoundingBox" stroke="none" fill="none" x="3227" y="894" width="1214" height="1214"/>
        <path fill="rgb(211,211,211)" stroke="none" d="M 4334,1501 C 4334,1588 4311,1675 4267,1751 4223,1827 4160,1890 4084,1934 4008,1978 3921,2001 3834,2001 3746,2001 3659,1978 3583,1934 3507,1890 3444,1827 3400,1751 3356,1675 3333,1588 3333,1501 3333,1413 3356,1326 3400,1250 3444,1174 3507,1111 3583,1067 3659,1023 3746,1000 3834,1000 3921,1000 4008,1023 4084,1067 4160,1111 4223,1174 4267,1250 4311,1326 4334,1413 4334,1500 L 4334,1501 Z "/>
        <path fill="none" stroke="rgb(0,0,0)" stroke-width="212" stroke-linejoin="round" d="M 4334,1501 C 4334,1588 4311,1675 4267,1751 4223,1827 4160,1890 4084,1934 4008,1978 3921,2001 3834,2001 3746,2001 3659,1978 3583,1934 3507,1890 3444,1827 3400,1751 3356,1675 3333,1588 3333,1501 3333,1413 3356,1326 3400,1250 3444,1174 3507,1111 3583,1067 3659,1023 3746,1000 3834,1000 3921,1000 4008,1023 4084,1067 4160,1111 4223,1174 4267,1250 4311,1326 4334,1413 4334,1500 L 4334,1501 Z "/>
       </g>
      </g>
      <g class="com.sun.star.drawing.CustomShape">
       <g id="id5">
        <rect class="BoundingBox" stroke="none" fill="none" x="7894" y="894" width="1214" height="1214"/>
        <path fill="rgb(211,211,211)" stroke="none" d="M 9001,1501 C 9001,1588 8978,1675 8934,1751 8890,1827 8827,1890 8751,1934 8675,1978 8588,2001 8501,2001 8413,2001 8326,1978 8250,1934 8174,1890 8111,1827 8067,1751 8023,1675 8000,1588 8000,1501 8000,1413 8023,1326 8067,1250 8111,1174 8174,1111 8250,1067 8326,1023 8413,1000 8501,1000 8588,1000 8675,1023 8751,1067 8827,1111 8890,1174 8934,1250 8978,1326 9001,1413 9001,1500 L 9001,1501 Z "/>
        <path fill="none" stroke="rgb(0,0,0)" stroke-width="212" stroke-linejoin="round" d="M 9001,1501 C 9001,1588 8978,1675 8934,1751 8890,1827 8827,1890 8751,1934 8675,1978 8588,2001 8501,2001 8413,2001 8326,1978 8250,1934 8174,1890 8111,1827 8067,1751 8023,1675 8000,1588 8000,1501 8000,1413 8023,1326 8067,1250 8111,1174 8174,1111 8250,1067 8326,1023 8413,1000 8501,1000 8588,1000 8675,1023 8751,1067 8827,1111 8890,1174 8934,1250 8978,1326 9001,1413 9001,1500 L 9001,1501 Z "/>
       </g>
      </g>
      <g class="com.sun.star.drawing.CustomShape">
       <g id="id6">
        <rect class="BoundingBox" stroke="none" fill="none" x="5561" y="894" width="1214" height="1214"/>
        <path fill="rgb(211,211,211)" stroke="none" d="M 6668,1501 C 6668,1588 6645,1675 6601,1751 6557,1827 6494,1890 6418,1934 6342,1978 6255,2001 6168,2001 6080,2001 5993,1978 5917,1934 5841,1890 5778,1827 5734,1751 5690,1675 5667,1588 5667,1501 5667,1413 5690,1326 5734,1250 5778,1174 5841,1111 5917,1067 5993,1023 6080,1000 6168,1000 6255,1000 6342,1023 6418,1067 6494,1111 6557,1174 6601,1250 6645,1326 6668,1413 6668,1500 L 6668,1501 Z "/>
        <path fill="none" stroke="rgb(0,0,0)" stroke-width="212" stroke-linejoin="round" d="M 6668,1501 C 6668,1588 6645,1675 6601,1751 6557,1827 6494,1890 6418,1934 6342,1978 6255,2001 6168,2001 6080,2001 5993,1978 5917,1934 5841,1890 5778,1827 5734,1751 5690,1675 5667,1588 5667,1501 5667,1413 5690,1326 5734,1250 5778,1174 5841,1111 5917,1067 5993,1023 6080,1000 6168,1000 6255,1000 6342,1023 6418,1067 6494,1111 6557,1174 6601,1250 6645,1326 6668,1413 6668,1500 L 6668,1501 Z "/>
       </g>
      </g>
      <g class="Group">
       <g class="com.sun.star.drawing.CustomShape">
        <g id="id7">
         <rect class="BoundingBox" stroke="none" fill="none" x="894" y="5561" width="1214" height="1214"/>
         <path fill="rgb(211,211,211)" stroke="none" d="M 2001,6168 C 2001,6255 1978,6342 1934,6418 1890,6494 1827,6557 1751,6601 1675,6645 1588,6668 1501,6668 1413,6668 1326,6645 1250,6601 1174,6557 1111,6494 1067,6418 1023,6342 1000,6255 1000,6168 1000,6080 1023,5993 1067,5917 1111,5841 1174,5778 1250,5734 1326,5690 1413,5667 1500,5667 1588,5667 1675,5690 1751,5734 1827,5778 1890,5841 1934,5917 1978,5993 2001,6080 2001,6167 L 2001,6168 Z "/>
         <path fill="none" stroke="rgb(0,0,0)" stroke-width="212" stroke-linejoin="round" d="M 2001,6168 C 2001,6255 1978,6342 1934,6418 1890,6494 1827,6557 1751,6601 1675,6645 1588,6668 1501,6668 1413,6668 1326,6645 1250,6601 1174,6557 1111,6494 1067,6418 1023,6342 1000,6255 1000,6168 1000,6080 1023,5993 1067,5917 1111,5841 1174,5778 1250,5734 1326,5690 1413,5667 1500,5667 1588,5667 1675,5690 1751,5734 1827,5778 1890,5841 1934,5917 1978,5993 2001,6080 2001,6167 L 2001,6168 Z "/>
        </g>
       </g>
       <g class="com.sun.star.drawing.CustomShape">
        <g id="id8">
         <rect class="BoundingBox" stroke="none" fill="none" x="7894" y="5561" width="1214" height="1214"/>
         <path fill="rgb(211,211,211)" stroke="none" d="M 9001,6168 C 9001,6255 8978,6342 8934,6418 8890,6494 8827,6557 8751,6601 8675,6645 8588,6668 8501,6668 8413,6668 8326,6645 8250,6601 8174,6557 8111,6494 8067,6418 8023,6342 8000,6255 8000,6168 8000,6080 8023,5993 8067,5917 8111,5841 8174,5778 8250,5734 8326,5690 8413,5667 8501,5667 8588,5667 8675,5690 8751,5734 8827,5778 8890,5841 8934,5917 8978,5993 9001,6080 9001,6167 L 9001,6168 Z "/>
         <path fill="none" stroke="rgb(0,0,0)" stroke-width="212" stroke-linejoin="round" d="M 9001,6168 C 9001,6255 8978,6342 8934,6418 8890,6494 8827,6557 8751,6601 8675,6645 8588,6668 8501,6668 8413,6668 8326,6645 8250,6601 8174,6557 8111,6494 8067,6418 8023,6342 8000,6255 8000,6168 8000,6080 8023,5993 8067,5917 8111,5841 8174,5778 8250,5734 8326,5690 8413,5667 8501,5667 8588,5667 8675,5690 8751,5734 8827,5778 8890,5841 8934,5917 8978,5993 9001,6080 9001,6167 L 9001,6168 Z "/>
        </g>
       </g>
      </g>
      <g class="Group">
       <g class="com.sun.star.drawing.CustomShape">
        <g id="id9">
         <rect class="BoundingBox" stroke="none" fill="none" x="895" y="3228" width="1214" height="1214"/>
         <path fill="rgb(211,211,211)" stroke="none" d="M 2002,3835 C 2002,3922 1979,4009 1935,4085 1891,4161 1828,4224 1752,4268 1676,4312 1589,4335 1502,4335 1414,4335 1327,4312 1251,4268 1175,4224 1112,4161 1068,4085 1024,4009 1001,3922 1001,3835 1001,3747 1024,3660 1068,3584 1112,3508 1175,3445 1251,3401 1327,3357 1414,3334 1501,3334 1589,3334 1676,3357 1752,3401 1828,3445 1891,3508 1935,3584 1979,3660 2002,3747 2002,3834 L 2002,3835 Z "/>
         <path fill="none" stroke="rgb(0,0,0)" stroke-width="212" stroke-linejoin="round" d="M 2002,3835 C 2002,3922 1979,4009 1935,4085 1891,4161 1828,4224 1752,4268 1676,4312 1589,4335 1502,4335 1414,4335 1327,4312 1251,4268 1175,4224 1112,4161 1068,4085 1024,4009 1001,3922 1001,3835 1001,3747 1024,3660 1068,3584 1112,3508 1175,3445 1251,3401 1327,3357 1414,3334 1501,3334 1589,3334 1676,3357 1752,3401 1828,3445 1891,3508 1935,3584 1979,3660 2002,3747 2002,3834 L 2002,3835 Z "/>
        </g>
       </g>
       <g class="com.sun.star.drawing.CustomShape">
        <g id="id10">
         <rect class="BoundingBox" stroke="none" fill="none" x="7895" y="3228" width="1214" height="1214"/>
         <path fill="rgb(211,211,211)" stroke="none" d="M 9002,3835 C 9002,3922 8979,4009 8935,4085 8891,4161 8828,4224 8752,4268 8676,4312 8589,4335 8502,4335 8414,4335 8327,4312 8251,4268 8175,4224 8112,4161 8068,4085 8024,4009 8001,3922 8001,3835 8001,3747 8024,3660 8068,3584 8112,3508 8175,3445 8251,3401 8327,3357 8414,3334 8502,3334 8589,3334 8676,3357 8752,3401 8828,3445 8891,3508 8935,3584 8979,3660 9002,3747 9002,3834 L 9002,3835 Z "/>
         <path fill="none" stroke="rgb(0,0,0)" stroke-width="212" stroke-linejoin="round" d="M 9002,3835 C 9002,3922 8979,4009 8935,4085 8891,4161 8828,4224 8752,4268 8676,4312 8589,4335 8502,4335 8414,4335 8327,4312 8251,4268 8175,4224 8112,4161 8068,4085 8024,4009 8001,3922 8001,3835 8001,3747 8024,3660 8068,3584 8112,3508 8175,3445 8251,3401 8327,3357 8414,3334 8502,3334 8589,3334 8676,3357 8752,3401 8828,3445 8891,3508 8935,3584 8979,3660 9002,3747 9002,3834 L 9002,3835 Z "/>
        </g>
       </g>
      </g>
      <g class="Group">
       <g class="com.sun.star.drawing.CustomShape">
        <g id="id11">
         <rect class="BoundingBox" stroke="none" fill="none" x="895" y="7895" width="1214" height="1214"/>
         <path fill="rgb(211,211,211)" stroke="none" d="M 2002,8502 C 2002,8589 1979,8676 1935,8752 1891,8828 1828,8891 1752,8935 1676,8979 1589,9002 1502,9002 1414,9002 1327,8979 1251,8935 1175,8891 1112,8828 1068,8752 1024,8676 1001,8589 1001,8502 1001,8414 1024,8327 1068,8251 1112,8175 1175,8112 1251,8068 1327,8024 1414,8001 1501,8001 1589,8001 1676,8024 1752,8068 1828,8112 1891,8175 1935,8251 1979,8327 2002,8414 2002,8502 L 2002,8502 Z "/>
         <path fill="none" stroke="rgb(0,0,0)" stroke-width="212" stroke-linejoin="round" d="M 2002,8502 C 2002,8589 1979,8676 1935,8752 1891,8828 1828,8891 1752,8935 1676,8979 1589,9002 1502,9002 1414,9002 1327,8979 1251,8935 1175,8891 1112,8828 1068,8752 1024,8676 1001,8589 1001,8502 1001,8414 1024,8327 1068,8251 1112,8175 1175,8112 1251,8068 1327,8024 1414,8001 1501,8001 1589,8001 1676,8024 1752,8068 1828,8112 1891,8175 1935,8251 1979,8327 2002,8414 2002,8502 Z "/>
        </g>
       </g>
       <g class="com.sun.star.drawing.CustomShape">
        <g id="id12">
         <rect class="BoundingBox" stroke="none" fill="none" x="3228" y="7895" width="1214" height="1214"/>
         <path fill="rgb(211,211,211)" stroke="none" d="M 4335,8502 C 4335,8589 4312,8676 4268,8752 4224,8828 4161,8891 4085,8935 4009,8979 3922,9002 3835,9002 3747,9002 3660,8979 3584,8935 3508,8891 3445,8828 3401,8752 3357,8676 3334,8589 3334,8502 3334,8414 3357,8327 3401,8251 3445,8175 3508,8112 3584,8068 3660,8024 3747,8001 3834,8001 3922,8001 4009,8024 4085,8068 4161,8112 4224,8175 4268,8251 4312,8327 4335,8414 4335,8502 L 4335,8502 Z "/>
         <path fill="none" stroke="rgb(0,0,0)" stroke-width="212" stroke-linejoin="round" d="M 4335,8502 C 4335,8589 4312,8676 4268,8752 4224,8828 4161,8891 4085,8935 4009,8979 3922,9002 3835,9002 3747,9002 3660,8979 3584,8935 3508,8891 3445,8828 3401,8752 3357,8676 3334,8589 3334,8502 3334,8414 3357,8327 3401,8251 3445,8175 3508,8112 3584,8068 3660,8024 3747,8001 3834,8001 3922,8001 4009,8024 4085,8068 4161,8112 4224,8175 4268,8251 4312,8327 4335,8414 4335,8502 Z "/>
        </g>
       </g>
       <g class="com.sun.star.drawing.CustomShape">
        <g id="id13">
         <rect class="BoundingBox" stroke="none" fill="none" x="7895" y="7895" width="1214" height="1214"/>
         <path fill="rgb(211,211,211)" stroke="none" d="M 9002,8502 C 9002,8589 8979,8676 8935,8752 8891,8828 8828,8891 8752,8935 8676,8979 8589,9002 8502,9002 8414,9002 8327,8979 8251,8935 8175,8891 8112,8828 8068,8752 8024,8676 8001,8589 8001,8502 8001,8414 8024,8327 8068,8251 8112,8175 8175,8112 8251,8068 8327,8024 8414,8001 8502,8001 8589,8001 8676,8024 8752,8068 8828,8112 8891,8175 8935,8251 8979,8327 9002,8414 9002,8502 L 9002,8502 Z "/>
         <path fill="none" stroke="rgb(0,0,0)" stroke-width="212" stroke-linejoin="round" d="M 9002,8502 C 9002,8589 8979,8676 8935,8752 8891,8828 8828,8891 8752,8935 8676,8979 8589,9002 8502,9002 8414,9002 8327,8979 8251,8935 8175,8891 8112,8828 8068,8752 8024,8676 8001,8589 8001,8502 8001,8414 8024,8327 8068,8251 8112,8175 8175,8112 8251,8068 8327,8024 8414,8001 8502,8001 8589,8001 8676,8024 8752,8068 8828,8112 8891,8175 8935,8251 8979,8327 9002,8414 9002,8502 Z "/>
        </g>
       </g>
       <g class="com.sun.star.drawing.CustomShape">
        <g id="id14">
         <rect class="BoundingBox" stroke="none" fill="none" x="5562" y="7895" width="1214" height="1214"/>
         <path fill="rgb(211,211,211)" stroke="none" d="M 6669,8502 C 6669,8589 6646,8676 6602,8752 6558,8828 6495,8891 6419,8935 6343,8979 6256,9002 6169,9002 6081,9002 5994,8979 5918,8935 5842,8891 5779,8828 5735,8752 5691,8676 5668,8589 5668,8502 5668,8414 5691,8327 5735,8251 5779,8175 5842,8112 5918,8068 5994,8024 6081,8001 6169,8001 6256,8001 6343,8024 6419,8068 6495,8112 6558,8175 6602,8251 6646,8327 6669,8414 6669,8502 L 6669,8502 Z "/>
         <path fill="none" stroke="rgb(0,0,0)" stroke-width="212" stroke-linejoin="round" d="M 6669,8502 C 6669,8589 6646,8676 6602,8752 6558,8828 6495,8891 6419,8935 6343,8979 6256,9002 6169,9002 6081,9002 5994,8979 5918,8935 5842,8891 5779,8828 5735,8752 5691,8676 5668,8589 5668,8502 5668,8414 5691,8327 5735,8251 5779,8175 5842,8112 5918,8068 5994,8024 6081,8001 6169,8001 6256,8001 6343,8024 6419,8068 6495,8112 6558,8175 6602,8251 6646,8327 6669,8414 6669,8502 Z "/>
        </g>
       </g>
      </g>
      <g class="Group">
       <g class="com.sun.star.drawing.CustomShape">
        <g id="id15">
         <rect class="BoundingBox" stroke="none" fill="none" x="2644" y="2120" width="4995" height="3390"/>
         <path fill="rgb(30,144,255)" stroke="none" d="M 5957,4350 L 5956,4296 5952,4242 5945,4189 5936,4136 5924,4083 5909,4031 5892,3980 5872,3930 5850,3881 5825,3833 5798,3786 5769,3740 5737,3697 5704,3655 5668,3614 5630,3575 5591,3539 5550,3504 5507,3471 5462,3441 5416,3413 5369,3387 5320,3364 5270,3343 5220,3324 5168,3308 5116,3295 5063,3284 5010,3276 4956,3271 4902,3268 4848,3268 4794,3271 4740,3276 4687,3284 4634,3295 4582,3308 4530,3324 4480,3343 4430,3364 4381,3387 4334,3413 4288,3441 4243,3471 4200,3504 4159,3539 4120,3575 4082,3614 4046,3655 4013,3697 3981,3740 3952,3786 3925,3833 3900,3881 3878,3930 3858,3980 3841,4031 3826,4083 3814,4136 3805,4189 3798,4242 3794,4296 3793,4350 2750,4350 2753,4244 2761,4138 2774,4033 2792,3929 2816,3826 2844,3724 2878,3623 2917,3525 2960,3428 3009,3334 3062,3242 3119,3153 3181,3067 3247,2984 3317,2905 3391,2829 3469,2757 3550,2689 3635,2625 3722,2565 3813,2510 3906,2459 4001,2413 4099,2372 4198,2336 4299,2304 4402,2278 4506,2257 4611,2241 4716,2231 4822,2226 4928,2226 5034,2231 5139,2241 5244,2257 5348,2278 5451,2304 5552,2336 5651,2372 5749,2413 5844,2459 5938,2510 6028,2565 6115,2625 6200,2689 6281,2757 6359,2829 6433,2905 6503,2984 6569,3067 6631,3153 6688,3242 6741,3334 6790,3428 6833,3525 6872,3623 6906,3724 6934,3826 6958,3929 6976,4033 6989,4138 6997,4244 7000,4350 7532,4350 6479,5403 5426,4350 5957,4350 Z "/>
         <path fill="none" stroke="rgb(0,0,0)" stroke-width="212" stroke-linejoin="round" d="M 5957,4350 L 5956,4296 5952,4242 5945,4189 5936,4136 5924,4083 5909,4031 5892,3980 5872,3930 5850,3881 5825,3833 5798,3786 5769,3740 5737,3697 5704,3655 5668,3614 5630,3575 5591,3539 5550,3504 5507,3471 5462,3441 5416,3413 5369,3387 5320,3364 5270,3343 5220,3324 5168,3308 5116,3295 5063,3284 5010,3276 4956,3271 4902,3268 4848,3268 4794,3271 4740,3276 4687,3284 4634,3295 4582,3308 4530,3324 4480,3343 4430,3364 4381,3387 4334,3413 4288,3441 4243,3471 4200,3504 4159,3539 4120,3575 4082,3614 4046,3655 4013,3697 3981,3740 3952,3786 3925,3833 3900,3881 3878,3930 3858,3980 3841,4031 3826,4083 3814,4136 3805,4189 3798,4242 3794,4296 3793,4350 2750,4350 2753,4244 2761,4138 2774,4033 2792,3929 2816,3826 2844,3724 2878,3623 2917,3525 2960,3428 3009,3334 3062,3242 3119,3153 3181,3067 3247,2984 3317,2905 3391,2829 3469,2757 3550,2689 3635,2625 3722,2565 3813,2510 3906,2459 4001,2413 4099,2372 4198,2336 4299,2304 4402,2278 4506,2257 4611,2241 4716,2231 4822,2226 4928,2226 5034,2231 5139,2241 5244,2257 5348,2278 5451,2304 5552,2336 5651,2372 5749,2413 5844,2459 5938,2510 6028,2565 6115,2625 6200,2689 6281,2757 6359,2829 6433,2905 6503,2984 6569,3067 6631,3153 6688,3242 6741,3334 6790,3428 6833,3525 6872,3623 6906,3724 6934,3826 6958,3929 6976,4033 6989,4138 6997,4244 7000,4350 7532,4350 6479,5403 5426,4350 5957,4350 Z "/>
        </g>
       </g>
       <g class="com.sun.star.drawing.CustomShape">
        <g id="id16">
         <rect class="BoundingBox" stroke="none" fill="none" x="2362" y="4491" width="4995" height="3391"/>
         <path fill="rgb(30,144,255)" stroke="none" d="M 4043,5650 L 4044,5704 4048,5758 4055,5811 4064,5864 4076,5917 4091,5969 4108,6020 4128,6070 4150,6119 4175,6167 4202,6214 4231,6260 4263,6303 4296,6345 4332,6386 4370,6425 4409,6461 4450,6496 4493,6529 4538,6559 4584,6587 4631,6613 4680,6636 4730,6657 4780,6676 4832,6692 4884,6705 4937,6716 4990,6724 5044,6729 5098,6732 5152,6732 5206,6729 5260,6724 5313,6716 5366,6705 5418,6692 5470,6676 5520,6657 5570,6636 5619,6613 5666,6587 5712,6559 5757,6529 5800,6496 5841,6461 5880,6425 5918,6386 5954,6345 5987,6303 6019,6260 6048,6214 6075,6167 6100,6119 6122,6070 6142,6020 6159,5969 6174,5917 6186,5864 6195,5811 6202,5758 6206,5704 6207,5650 7250,5650 7247,5756 7239,5862 7226,5967 7208,6071 7184,6174 7156,6276 7122,6377 7083,6475 7040,6572 6991,6666 6938,6758 6881,6847 6819,6933 6753,7016 6683,7095 6609,7171 6531,7243 6450,7311 6365,7375 6278,7435 6187,7490 6094,7541 5999,7587 5901,7628 5802,7664 5701,7696 5598,7722 5494,7743 5389,7759 5284,7769 5178,7774 5072,7774 4966,7769 4861,7759 4756,7743 4652,7722 4549,7696 4448,7664 4349,7628 4251,7587 4156,7541 4062,7490 3972,7435 3885,7375 3800,7311 3719,7243 3641,7171 3567,7095 3497,7016 3431,6933 3369,6847 3312,6758 3259,6666 3210,6572 3167,6475 3128,6377 3094,6276 3066,6174 3042,6071 3024,5967 3011,5862 3003,5756 3000,5650 2468,5650 3521,4597 4574,5650 4043,5650 Z "/>
         <path fill="none" stroke="rgb(0,0,0)" stroke-width="212" stroke-linejoin="round" d="M 4043,5650 L 4044,5704 4048,5758 4055,5811 4064,5864 4076,5917 4091,5969 4108,6020 4128,6070 4150,6119 4175,6167 4202,6214 4231,6260 4263,6303 4296,6345 4332,6386 4370,6425 4409,6461 4450,6496 4493,6529 4538,6559 4584,6587 4631,6613 4680,6636 4730,6657 4780,6676 4832,6692 4884,6705 4937,6716 4990,6724 5044,6729 5098,6732 5152,6732 5206,6729 5260,6724 5313,6716 5366,6705 5418,6692 5470,6676 5520,6657 5570,6636 5619,6613 5666,6587 5712,6559 5757,6529 5800,6496 5841,6461 5880,6425 5918,6386 5954,6345 5987,6303 6019,6260 6048,6214 6075,6167 6100,6119 6122,6070 6142,6020 6159,5969 6174,5917 6186,5864 6195,5811 6202,5758 6206,5704 6207,5650 7250,5650 7247,5756 7239,5862 7226,5967 7208,6071 7184,6174 7156,6276 7122,6377 7083,6475 7040,6572 6991,6666 6938,6758 6881,6847 6819,6933 6753,7016 6683,7095 6609,7171 6531,7243 6450,7311 6365,7375 6278,7435 6187,7490 6094,7541 5999,7587 5901,7628 5802,7664 5701,7696 5598,7722 5494,7743 5389,7759 5284,7769 5178,7774 5072,7774 4966,7769 4861,7759 4756,7743 4652,7722 4549,7696 4448,7664 4349,7628 4251,7587 4156,7541 4062,7490 3972,7435 3885,7375 3800,7311 3719,7243 3641,7171 3567,7095 3497,7016 3431,6933 3369,6847 3312,6758 3259,6666 3210,6572 3167,6475 3128,6377 3094,6276 3066,6174 3042,6071 3024,5967 3011,5862 3003,5756 3000,5650 2468,5650 3521,4597 4574,5650 4043,5650 Z "/>
        </g>
       </g>
      </g>
     </g>
    </g>
   </g>
  </g>
 </g>
</svg>