<?xml version="1.0" encoding="UTF-8"?>
<!DOCTYPE svg PUBLIC "-//W3C//DTD SVG 1.1//EN" "http://www.w3.org/Graphics/SVG/1.1/DTD/svg11.dtd">
<svg version="1.2" width="100mm" height="100mm" viewBox="0 0 10000 10000" preserveAspectRatio="xMidYMid" fill-rule="evenodd" stroke-width="28.222" stroke-linejoin="round" xmlns="http://www.w3.org/2000/svg" xmlns:ooo="http://xml.openoffice.org/svg/export" xmlns:xlink="http://www.w3.org/1999/xlink" xmlns:presentation="http://sun.com/xmlns/staroffice/presentation" xmlns:smil="http://www.w3.org/2001/SMIL20/" xmlns:anim="urn:oasis:names:tc:opendocument:xmlns:animation:1.0" xmlns:svg="urn:oasis:names:tc:opendocument:xmlns:svg-compatible:1.0" xml:space="preserve">
 <defs class="ClipPathGroup">
  <clipPath id="presentation_clip_path" clipPathUnits="userSpaceOnUse">
   <rect x="0" y="0" width="10000" height="10000"/>
  </clipPath>
  <clipPath id="presentation_clip_path_shrink" clipPathUnits="userSpaceOnUse">
   <rect x="10" y="10" width="9980" height="9980"/>
  </clipPath>
 </defs>
 <defs class="TextShapeIndex">
  <g ooo:slide="id1" ooo:id-list="id3 id4 id5"/>
 </defs>
 <defs class="EmbeddedBulletChars">
  <g id="bullet-char-template-57356" transform="scale(0.00048828125,-0.00048828125)">
   <path d="M 580,1141 L 1163,571 580,0 -4,571 580,1141 Z"/>
  </g>
  <g id="bullet-char-template-57354" transform="scale(0.00048828125,-0.00048828125)">
   <path d="M 8,1128 L 1137,1128 1137,0 8,0 8,1128 Z"/>
  </g>
  <g id="bullet-char-template-10146" transform="scale(0.00048828125,-0.00048828125)">
   <path d="M 174,0 L 602,739 174,1481 1456,739 174,0 Z M 1358,739 L 309,1346 659,739 1358,739 Z"/>
  </g>
  <g id="bullet-char-template-10132" transform="scale(0.00048828125,-0.00048828125)">
   <path d="M 2015,739 L 1276,0 717,0 1260,543 174,543 174,936 1260,936 717,1481 1274,1481 2015,739 Z"/>
  </g>
  <g id="bullet-char-template-10007" transform="scale(0.00048828125,-0.00048828125)">
   <path d="M 0,-2 C -7,14 -16,27 -25,37 L 356,567 C 262,823 215,952 215,954 215,979 228,992 255,992 264,992 276,990 289,987 310,991 331,999 354,1012 L 381,999 492,748 772,1049 836,1024 860,1049 C 881,1039 901,1025 922,1006 886,937 835,863 770,784 769,783 710,716 594,584 L 774,223 C 774,196 753,168 711,139 L 727,119 C 717,90 699,76 672,76 641,76 570,178 457,381 L 164,-76 C 142,-110 111,-127 72,-127 30,-127 9,-110 8,-76 1,-67 -2,-52 -2,-32 -2,-23 -1,-13 0,-2 Z"/>
  </g>
  <g id="bullet-char-template-10004" transform="scale(0.00048828125,-0.00048828125)">
   <path d="M 285,-33 C 182,-33 111,30 74,156 52,228 41,333 41,471 41,549 55,616 82,672 116,743 169,778 240,778 293,778 328,747 346,684 L 369,508 C 377,444 397,411 428,410 L 1163,1116 C 1174,1127 1196,1133 1229,1133 1271,1133 1292,1118 1292,1087 L 1292,965 C 1292,929 1282,901 1262,881 L 442,47 C 390,-6 338,-33 285,-33 Z"/>
  </g>
  <g id="bullet-char-template-9679" transform="scale(0.00048828125,-0.00048828125)">
   <path d="M 813,0 C 632,0 489,54 383,161 276,268 223,411 223,592 223,773 276,916 383,1023 489,1130 632,1184 813,1184 992,1184 1136,1130 1245,1023 1353,916 1407,772 1407,592 1407,412 1353,268 1245,161 1136,54 992,0 813,0 Z"/>
  </g>
  <g id="bullet-char-template-8226" transform="scale(0.00048828125,-0.00048828125)">
   <path d="M 346,457 C 273,457 209,483 155,535 101,586 74,649 74,723 74,796 101,859 155,911 209,963 273,989 346,989 419,989 480,963 531,910 582,859 608,796 608,723 608,648 583,586 532,535 482,483 420,457 346,457 Z"/>
  </g>
  <g id="bullet-char-template-8211" transform="scale(0.00048828125,-0.00048828125)">
   <path d="M -4,459 L 1135,459 1135,606 -4,606 -4,459 Z"/>
  </g>
  <g id="bullet-char-template-61548" transform="scale(0.00048828125,-0.00048828125)">
   <path d="M 173,740 C 173,903 231,1043 346,1159 462,1274 601,1332 765,1332 928,1332 1067,1274 1183,1159 1299,1043 1357,903 1357,740 1357,577 1299,437 1183,322 1067,206 928,148 765,148 601,148 462,206 346,322 231,437 173,577 173,740 Z"/>
  </g>
 </defs>
 <g>
  <g id="id2" class="Master_Slide">
   <g id="bg-id2" class="Background"/>
   <g id="bo-id2" class="BackgroundObjects"/>
  </g>
 </g>
 <g class="SlideGroup">
  <g>
   <g id="container-id1">
    <g id="id1" class="Slide" clip-path="url(#presentation_clip_path)">
     <g class="Page">
      <g class="Group">
       <g class="com.sun.star.drawing.CustomShape">
        <g id="id3">
         <rect class="BoundingBox" stroke="none" fill="none" x="2644" y="2121" width="4995" height="3390"/>
         <path fill="rgb(30,144,255)" stroke="none" d="M 5957,4351 L 5956,4297 5952,4243 5945,4190 5936,4137 5924,4084 5909,4032 5892,3981 5872,3931 5850,3882 5825,3834 5798,3787 5769,3741 5737,3698 5704,3656 5668,3615 5630,3576 5591,3540 5550,3505 5507,3472 5462,3442 5416,3414 5369,3388 5320,3365 5270,3344 5220,3325 5168,3309 5116,3296 5063,3285 5010,3277 4956,3272 4902,3269 4848,3269 4794,3272 4740,3277 4687,3285 4634,3296 4582,3309 4530,3325 4480,3344 4430,3365 4381,3388 4334,3414 4288,3442 4243,3472 4200,3505 4159,3540 4120,3576 4082,3615 4046,3656 4013,3698 3981,3741 3952,3787 3925,3834 3900,3882 3878,3931 3858,3981 3841,4032 3826,4084 3814,4137 3805,4190 3798,4243 3794,4297 3793,4351 2750,4351 2753,4245 2761,4139 2774,4034 2792,3930 2816,3827 2844,3725 2878,3624 2917,3526 2960,3429 3009,3335 3062,3243 3119,3154 3181,3068 3247,2985 3317,2906 3391,2830 3469,2758 3550,2690 3635,2626 3722,2566 3813,2511 3906,2460 4001,2414 4099,2373 4198,2337 4299,2305 4402,2279 4506,2258 4611,2242 4716,2232 4822,2227 4928,2227 5034,2232 5139,2242 5244,2258 5348,2279 5451,2305 5552,2337 5651,2373 5749,2414 5844,2460 5938,2511 6028,2566 6115,2626 6200,2690 6281,2758 6359,2830 6433,2906 6503,2985 6569,3068 6631,3154 6688,3243 6741,3335 6790,3429 6833,3526 6872,3624 6906,3725 6934,3827 6958,3930 6976,4034 6989,4139 6997,4245 7000,4351 7532,4351 6479,5404 5426,4351 5957,4351 Z "/>
         <path fill="none" stroke="rgb(0,0,0)" stroke-width="212" stroke-linejoin="round" d="M 5957,4351 L 5956,4297 5952,4243 5945,4190 5936,4137 5924,4084 5909,4032 5892,3981 5872,3931 5850,3882 5825,3834 5798,3787 5769,3741 5737,3698 5704,3656 5668,3615 5630,3576 5591,3540 5550,3505 5507,3472 5462,3442 5416,3414 5369,3388 5320,3365 5270,3344 5220,3325 5168,3309 5116,3296 5063,3285 5010,3277 4956,3272 4902,3269 4848,3269 4794,3272 4740,3277 4687,3285 4634,3296 4582,3309 4530,3325 4480,3344 4430,3365 4381,3388 4334,3414 4288,3442 4243,3472 4200,3505 4159,3540 4120,3576 4082,3615 4046,3656 4013,3698 3981,3741 3952,3787 3925,3834 3900,3882 3878,3931 3858,3981 3841,4032 3826,4084 3814,4137 3805,4190 3798,4243 3794,4297 3793,4351 2750,4351 2753,4245 2761,4139 2774,4034 2792,3930 2816,3827 2844,3725 2878,3624 2917,3526 2960,3429 3009,3335 3062,3243 3119,3154 3181,3068 3247,2985 3317,2906 3391,2830 3469,2758 3550,2690 3635,2626 3722,2566 3813,2511 3906,2460 4001,2414 4099,2373 4198,2337 4299,2305 4402,2279 4506,2258 4611,2242 4716,2232 4822,2227 4928,2227 5034,2232 5139,2242 5244,2258 5348,2279 5451,2305 5552,2337 5651,2373 5749,2414 5844,2460 5938,2511 6028,2566 6115,2626 6200,2690 6281,2758 6359,2830 6433,2906 6503,2985 6569,3068 6631,3154 6688,3243 6741,3335 6790,3429 6833,3526 6872,3624 6906,3725 6934,3827 6958,3930 6976,4034 6989,4139 6997,4245 7000,4351 7532,4351 6479,5404 5426,4351 5957,4351 Z "/>
        </g>
       </g>
       <g class="com.sun.star.drawing.CustomShape">
        <g id="id4">
         <rect class="BoundingBox" stroke="none" fill="none" x="2362" y="4492" width="4995" height="3390"/>
         <path fill="rgb(30,144,255)" stroke="none" d="M 4043,5651 L 4044,5705 4048,5759 4055,5812 4064,5865 4076,5918 4091,5970 4108,6021 4128,6071 4150,6120 4175,6168 4202,6215 4231,6261 4263,6304 4296,6346 4332,6387 4370,6426 4409,6462 4450,6497 4493,6530 4538,6560 4584,6588 4631,6614 4680,6637 4730,6658 4780,6677 4832,6693 4884,6706 4937,6717 4990,6725 5044,6730 5098,6733 5152,6733 5206,6730 5260,6725 5313,6717 5366,6706 5418,6693 5470,6677 5520,6658 5570,6637 5619,6614 5666,6588 5712,6560 5757,6530 5800,6497 5841,6462 5880,6426 5918,6387 5954,6346 5987,6304 6019,6261 6048,6215 6075,6168 6100,6120 6122,6071 6142,6021 6159,5970 6174,5918 6186,5865 6195,5812 6202,5759 6206,5705 6207,5651 7250,5651 7247,5757 7239,5863 7226,5968 7208,6072 7184,6175 7156,6277 7122,6378 7083,6476 7040,6573 6991,6667 6938,6759 6881,6848 6819,6934 6753,7017 6683,7096 6609,7172 6531,7244 6450,7312 6365,7376 6278,7436 6187,7491 6094,7542 5999,7588 5901,7629 5802,7665 5701,7697 5598,7723 5494,7744 5389,7760 5284,7770 5178,7775 5072,7775 4966,7770 4861,7760 4756,7744 4652,7723 4549,7697 4448,7665 4349,7629 4251,7588 4156,7542 4062,7491 3972,7436 3885,7376 3800,7312 3719,7244 3641,7172 3567,7096 3497,7017 3431,6934 3369,6848 3312,6759 3259,6667 3210,6573 3167,6476 3128,6378 3094,6277 3066,6175 3042,6072 3024,5968 3011,5863 3003,5757 3000,5651 2468,5651 3521,4598 4574,5651 4043,5651 Z "/>
         <path fill="none" stroke="rgb(0,0,0)" stroke-width="212" stroke-linejoin="round" d="M 4043,5651 L 4044,5705 4048,5759 4055,5812 4064,5865 4076,5918 4091,5970 4108,6021 4128,6071 4150,6120 4175,6168 4202,6215 4231,6261 4263,6304 4296,6346 4332,6387 4370,6426 4409,6462 4450,6497 4493,6530 4538,6560 4584,6588 4631,6614 4680,6637 4730,6658 4780,6677 4832,6693 4884,6706 4937,6717 4990,6725 5044,6730 5098,6733 5152,6733 5206,6730 5260,6725 5313,6717 5366,6706 5418,6693 5470,6677 5520,6658 5570,6637 5619,6614 5666,6588 5712,6560 5757,6530 5800,6497 5841,6462 5880,6426 5918,6387 5954,6346 5987,6304 6019,6261 6048,6215 6075,6168 6100,6120 6122,6071 6142,6021 6159,5970 6174,5918 6186,5865 6195,5812 6202,5759 6206,5705 6207,5651 7250,5651 7247,5757 7239,5863 7226,5968 7208,6072 7184,6175 7156,6277 7122,6378 7083,6476 7040,6573 6991,6667 6938,6759 6881,6848 6819,6934 6753,7017 6683,7096 6609,7172 6531,7244 6450,7312 6365,7376 6278,7436 6187,7491 6094,7542 5999,7588 5901,7629 5802,7665 5701,7697 5598,7723 5494,7744 5389,7760 5284,7770 5178,7775 5072,7775 4966,7770 4861,7760 4756,7744 4652,7723 4549,7697 4448,7665 4349,7629 4251,7588 4156,7542 4062,7491 3972,7436 3885,7376 3800,7312 3719,7244 3641,7172 3567,7096 3497,7017 3431,6934 3369,6848 3312,6759 3259,6667 3210,6573 3167,6476 3128,6378 3094,6277 3066,6175 3042,6072 3024,5968 3011,5863 3003,5757 3000,5651 2468,5651 3521,4598 4574,5651 4043,5651 Z "/>
        </g>
       </g>
      </g>
      <g class="com.sun.star.drawing.ClosedBezierShape">
       <g id="id5">
        <rect class="BoundingBox" stroke="none" fill="none" x="789" y="789" width="8426" height="8426"/>
        <path fill="rgb(211,211,211)" stroke="none" d="M 1001,9107 C 982,9107 964,9102 948,9093 932,9083 919,9070 909,9054 900,9038 895,9020 895,9001 L 895,8501 895,1501 895,1001 C 895,982 900,964 909,948 919,932 932,919 948,909 964,900 982,895 1001,895 L 1501,895 8501,895 9001,895 C 9020,895 9038,900 9054,909 9070,919 9083,932 9093,948 9102,964 9107,982 9107,1001 L 9107,1501 9107,8501 9107,9001 C 9107,9020 9102,9038 9093,9054 9083,9070 9070,9083 9054,9093 9038,9102 9020,9107 9001,9107 L 8501,9107 1501,9107 1001,9107 Z M 1607,8395 L 8395,8395 8395,1607 1607,1607 1607,8395 Z "/>
        <path fill="none" stroke="rgb(0,0,0)" stroke-width="212" stroke-linejoin="round" d="M 1001,9107 C 982,9107 964,9102 948,9093 932,9083 919,9070 909,9054 900,9038 895,9020 895,9001 L 895,8501 895,1501 895,1001 C 895,982 900,964 909,948 919,932 932,919 948,909 964,900 982,895 1001,895 L 1501,895 8501,895 9001,895 C 9020,895 9038,900 9054,909 9070,919 9083,932 9093,948 9102,964 9107,982 9107,1001 L 9107,1501 9107,8501 9107,9001 C 9107,9020 9102,9038 9093,9054 9083,9070 9070,9083 9054,9093 9038,9102 9020,9107 9001,9107 L 8501,9107 1501,9107 1001,9107 Z "/>
        <path fill="none" stroke="rgb(0,0,0)" stroke-width="212" stroke-linejoin="round" d="M 1607,8395 L 8395,8395 8395,1607 1607,1607 1607,8395 Z "/>
       </g>
      </g>
     </g>
    </g>
   </g>
  </g>
 </g>
</svg>