<?xml version="1.0" encoding="UTF-8"?>
<!DOCTYPE svg PUBLIC "-//W3C//DTD SVG 1.1//EN" "http://www.w3.org/Graphics/SVG/1.1/DTD/svg11.dtd">
<svg version="1.2" width="100mm" height="100mm" viewBox="0 0 10000 10000" preserveAspectRatio="xMidYMid" fill-rule="evenodd" stroke-width="28.222" stroke-linejoin="round" xmlns="http://www.w3.org/2000/svg" xmlns:ooo="http://xml.openoffice.org/svg/export" xmlns:xlink="http://www.w3.org/1999/xlink" xmlns:presentation="http://sun.com/xmlns/staroffice/presentation" xmlns:smil="http://www.w3.org/2001/SMIL20/" xmlns:anim="urn:oasis:names:tc:opendocument:xmlns:animation:1.0" xmlns:svg="urn:oasis:names:tc:opendocument:xmlns:svg-compatible:1.0" xml:space="preserve">
 <defs class="ClipPathGroup">
  <clipPath id="presentation_clip_path" clipPathUnits="userSpaceOnUse">
   <rect x="0" y="0" width="10000" height="10000"/>
  </clipPath>
  <clipPath id="presentation_clip_path_shrink" clipPathUnits="userSpaceOnUse">
   <rect x="10" y="10" width="9980" height="9980"/>
  </clipPath>
 </defs>
 <defs class="TextShapeIndex">
  <g ooo:slide="id1" ooo:id-list="id3 id4 id5 id6"/>
 </defs>
 <defs class="EmbeddedBulletChars">
  <g id="bullet-char-template-57356" transform="scale(0.00048828125,-0.00048828125)">
   <path d="M 580,1141 L 1163,571 580,0 -4,571 580,1141 Z"/>
  </g>
  <g id="bullet-char-template-57354" transform="scale(0.00048828125,-0.00048828125)">
   <path d="M 8,1128 L 1137,1128 1137,0 8,0 8,1128 Z"/>
  </g>
  <g id="bullet-char-template-10146" transform="scale(0.00048828125,-0.00048828125)">
   <path d="M 174,0 L 602,739 174,1481 1456,739 174,0 Z M 1358,739 L 309,1346 659,739 1358,739 Z"/>
  </g>
  <g id="bullet-char-template-10132" transform="scale(0.00048828125,-0.00048828125)">
   <path d="M 2015,739 L 1276,0 717,0 1260,543 174,543 174,936 1260,936 717,1481 1274,1481 2015,739 Z"/>
  </g>
  <g id="bullet-char-template-10007" transform="scale(0.00048828125,-0.00048828125)">
   <path d="M 0,-2 C -7,14 -16,27 -25,37 L 356,567 C 262,823 215,952 215,954 215,979 228,992 255,992 264,992 276,990 289,987 310,991 331,999 354,1012 L 381,999 492,748 772,1049 836,1024 860,1049 C 881,1039 901,1025 922,1006 886,937 835,863 770,784 769,783 710,716 594,584 L 774,223 C 774,196 753,168 711,139 L 727,119 C 717,90 699,76 672,76 641,76 570,178 457,381 L 164,-76 C 142,-110 111,-127 72,-127 30,-127 9,-110 8,-76 1,-67 -2,-52 -2,-32 -2,-23 -1,-13 0,-2 Z"/>
  </g>
  <g id="bullet-char-template-10004" transform="scale(0.00048828125,-0.00048828125)">
   <path d="M 285,-33 C 182,-33 111,30 74,156 52,228 41,333 41,471 41,549 55,616 82,672 116,743 169,778 240,778 293,778 328,747 346,684 L 369,508 C 377,444 397,411 428,410 L 1163,1116 C 1174,1127 1196,1133 1229,1133 1271,1133 1292,1118 1292,1087 L 1292,965 C 1292,929 1282,901 1262,881 L 442,47 C 390,-6 338,-33 285,-33 Z"/>
  </g>
  <g id="bullet-char-template-9679" transform="scale(0.00048828125,-0.00048828125)">
   <path d="M 813,0 C 632,0 489,54 383,161 276,268 223,411 223,592 223,773 276,916 383,1023 489,1130 632,1184 813,1184 992,1184 1136,1130 1245,1023 1353,916 1407,772 1407,592 1407,412 1353,268 1245,161 1136,54 992,0 813,0 Z"/>
  </g>
  <g id="bullet-char-template-8226" transform="scale(0.00048828125,-0.00048828125)">
   <path d="M 346,457 C 273,457 209,483 155,535 101,586 74,649 74,723 74,796 101,859 155,911 209,963 273,989 346,989 419,989 480,963 531,910 582,859 608,796 608,723 608,648 583,586 532,535 482,483 420,457 346,457 Z"/>
  </g>
  <g id="bullet-char-template-8211" transform="scale(0.00048828125,-0.00048828125)">
   <path d="M -4,459 L 1135,459 1135,606 -4,606 -4,459 Z"/>
  </g>
  <g id="bullet-char-template-61548" transform="scale(0.00048828125,-0.00048828125)">
   <path d="M 173,740 C 173,903 231,1043 346,1159 462,1274 601,1332 765,1332 928,1332 1067,1274 1183,1159 1299,1043 1357,903 1357,740 1357,577 1299,437 1183,322 1067,206 928,148 765,148 601,148 462,206 346,322 231,437 173,577 173,740 Z"/>
  </g>
 </defs>
 <g>
  <g id="id2" class="Master_Slide">
   <g id="bg-id2" class="Background"/>
   <g id="bo-id2" class="BackgroundObjects"/>
  </g>
 </g>
 <g class="SlideGroup">
  <g>
   <g id="container-id1">
    <g id="id1" class="Slide" clip-path="url(#presentation_clip_path)">
     <g class="Page">
      <g class="Group">
       <g class="com.sun.star.drawing.CustomShape">
        <g id="id3">
         <rect class="BoundingBox" stroke="none" fill="none" x="2644" y="2121" width="4995" height="3390"/>
         <path fill="rgb(30,144,255)" stroke="none" d="M 5957,4351 L 5956,4297 5952,4243 5945,4190 5936,4137 5924,4084 5909,4032 5892,3981 5872,3931 5850,3882 5825,3834 5798,3787 5769,3741 5737,3698 5704,3656 5668,3615 5630,3576 5591,3540 5550,3505 5507,3472 5462,3442 5416,3414 5369,3388 5320,3365 5270,3344 5220,3325 5168,3309 5116,3296 5063,3285 5010,3277 4956,3272 4902,3269 4848,3269 4794,3272 4740,3277 4687,3285 4634,3296 4582,3309 4530,3325 4480,3344 4430,3365 4381,3388 4334,3414 4288,3442 4243,3472 4200,3505 4159,3540 4120,3576 4082,3615 4046,3656 4013,3698 3981,3741 3952,3787 3925,3834 3900,3882 3878,3931 3858,3981 3841,4032 3826,4084 3814,4137 3805,4190 3798,4243 3794,4297 3793,4351 2750,4351 2753,4245 2761,4139 2774,4034 2792,3930 2816,3827 2844,3725 2878,3624 2917,3526 2960,3429 3009,3335 3062,3243 3119,3154 3181,3068 3247,2985 3317,2906 3391,2830 3469,2758 3550,2690 3635,2626 3722,2566 3813,2511 3906,2460 4001,2414 4099,2373 4198,2337 4299,2305 4402,2279 4506,2258 4611,2242 4716,2232 4822,2227 4928,2227 5034,2232 5139,2242 5244,2258 5348,2279 5451,2305 5552,2337 5651,2373 5749,2414 5844,2460 5938,2511 6028,2566 6115,2626 6200,2690 6281,2758 6359,2830 6433,2906 6503,2985 6569,3068 6631,3154 6688,3243 6741,3335 6790,3429 6833,3526 6872,3624 6906,3725 6934,3827 6958,3930 6976,4034 6989,4139 6997,4245 7000,4351 7532,4351 6479,5404 5426,4351 5957,4351 Z "/>
         <path fill="none" stroke="rgb(0,0,0)" stroke-width="212" stroke-linejoin="round" d="M 5957,4351 L 5956,4297 5952,4243 5945,4190 5936,4137 5924,4084 5909,4032 5892,3981 5872,3931 5850,3882 5825,3834 5798,3787 5769,3741 5737,3698 5704,3656 5668,3615 5630,3576 5591,3540 5550,3505 5507,3472 5462,3442 5416,3414 5369,3388 5320,3365 5270,3344 5220,3325 5168,3309 5116,3296 5063,3285 5010,3277 4956,3272 4902,3269 4848,3269 4794,3272 4740,3277 4687,3285 4634,3296 4582,3309 4530,3325 4480,3344 4430,3365 4381,3388 4334,3414 4288,3442 4243,3472 4200,3505 4159,3540 4120,3576 4082,3615 4046,3656 4013,3698 3981,3741 3952,3787 3925,3834 3900,3882 3878,3931 3858,3981 3841,4032 3826,4084 3814,4137 3805,4190 3798,4243 3794,4297 3793,4351 2750,4351 2753,4245 2761,4139 2774,4034 2792,3930 2816,3827 2844,3725 2878,3624 2917,3526 2960,3429 3009,3335 3062,3243 3119,3154 3181,3068 3247,2985 3317,2906 3391,2830 3469,2758 3550,2690 3635,2626 3722,2566 3813,2511 3906,2460 4001,2414 4099,2373 4198,2337 4299,2305 4402,2279 4506,2258 4611,2242 4716,2232 4822,2227 4928,2227 5034,2232 5139,2242 5244,2258 5348,2279 5451,2305 5552,2337 5651,2373 5749,2414 5844,2460 5938,2511 6028,2566 6115,2626 6200,2690 6281,2758 6359,2830 6433,2906 6503,2985 6569,3068 6631,3154 6688,3243 6741,3335 6790,3429 6833,3526 6872,3624 6906,3725 6934,3827 6958,3930 6976,4034 6989,4139 6997,4245 7000,4351 7532,4351 6479,5404 5426,4351 5957,4351 Z "/>
        </g>
       </g>
       <g class="com.sun.star.drawing.CustomShape">
        <g id="id4">
         <rect class="BoundingBox" stroke="none" fill="none" x="2362" y="4492" width="4995" height="3390"/>
         <path fill="rgb(30,144,255)" stroke="none" d="M 4043,5651 L 4044,5705 4048,5759 4055,5812 4064,5865 4076,5918 4091,5970 4108,6021 4128,6071 4150,6120 4175,6168 4202,6215 4231,6261 4263,6304 4296,6346 4332,6387 4370,6426 4409,6462 4450,6497 4493,6530 4538,6560 4584,6588 4631,6614 4680,6637 4730,6658 4780,6677 4832,6693 4884,6706 4937,6717 4990,6725 5044,6730 5098,6733 5152,6733 5206,6730 5260,6725 5313,6717 5366,6706 5418,6693 5470,6677 5520,6658 5570,6637 5619,6614 5666,6588 5712,6560 5757,6530 5800,6497 5841,6462 5880,6426 5918,6387 5954,6346 5987,6304 6019,6261 6048,6215 6075,6168 6100,6120 6122,6071 6142,6021 6159,5970 6174,5918 6186,5865 6195,5812 6202,5759 6206,5705 6207,5651 7250,5651 7247,5757 7239,5863 7226,5968 7208,6072 7184,6175 7156,6277 7122,6378 7083,6476 7040,6573 6991,6667 6938,6759 6881,6848 6819,6934 6753,7017 6683,7096 6609,7172 6531,7244 6450,7312 6365,7376 6278,7436 6187,7491 6094,7542 5999,7588 5901,7629 5802,7665 5701,7697 5598,7723 5494,7744 5389,7760 5284,7770 5178,7775 5072,7775 4966,7770 4861,7760 4756,7744 4652,7723 4549,7697 4448,7665 4349,7629 4251,7588 4156,7542 4062,7491 3972,7436 3885,7376 3800,7312 3719,7244 3641,7172 3567,7096 3497,7017 3431,6934 3369,6848 3312,6759 3259,6667 3210,6573 3167,6476 3128,6378 3094,6277 3066,6175 3042,6072 3024,5968 3011,5863 3003,5757 3000,5651 2468,5651 3521,4598 4574,5651 4043,5651 Z "/>
         <path fill="none" stroke="rgb(0,0,0)" stroke-width="212" stroke-linejoin="round" d="M 4043,5651 L 4044,5705 4048,5759 4055,5812 4064,5865 4076,5918 4091,5970 4108,6021 4128,6071 4150,6120 4175,6168 4202,6215 4231,6261 4263,6304 4296,6346 4332,6387 4370,6426 4409,6462 4450,6497 4493,6530 4538,6560 4584,6588 4631,6614 4680,6637 4730,6658 4780,6677 4832,6693 4884,6706 4937,6717 4990,6725 5044,6730 5098,6733 5152,6733 5206,6730 5260,6725 5313,6717 5366,6706 5418,6693 5470,6677 5520,6658 5570,6637 5619,6614 5666,6588 5712,6560 5757,6530 5800,6497 5841,6462 5880,6426 5918,6387 5954,6346 5987,6304 6019,6261 6048,6215 6075,6168 6100,6120 6122,6071 6142,6021 6159,5970 6174,5918 6186,5865 6195,5812 6202,5759 6206,5705 6207,5651 7250,5651 7247,5757 7239,5863 7226,5968 7208,6072 7184,6175 7156,6277 7122,6378 7083,6476 7040,6573 6991,6667 6938,6759 6881,6848 6819,6934 6753,7017 6683,7096 6609,7172 6531,7244 6450,7312 6365,7376 6278,7436 6187,7491 6094,7542 5999,7588 5901,7629 5802,7665 5701,7697 5598,7723 5494,7744 5389,7760 5284,7770 5178,7775 5072,7775 4966,7770 4861,7760 4756,7744 4652,7723 4549,7697 4448,7665 4349,7629 4251,7588 4156,7542 4062,7491 3972,7436 3885,7376 3800,7312 3719,7244 3641,7172 3567,7096 3497,7017 3431,6934 3369,6848 3312,6759 3259,6667 3210,6573 3167,6476 3128,6378 3094,6277 3066,6175 3042,6072 3024,5968 3011,5863 3003,5757 3000,5651 2468,5651 3521,4598 4574,5651 4043,5651 Z "/>
        </g>
       </g>
      </g>
      <g class="com.sun.star.drawing.ClosedBezierShape">
       <g id="id5">
        <rect class="BoundingBox" stroke="none" fill="none" x="682" y="681" width="8638" height="8638"/>
        <path fill="rgb(211,211,211)" stroke="none" d="M 7491,6501 C 7643,6226 7751,5929 7814,5621 L 9000,5621 C 9019,5621 9037,5623 9055,5628 9073,5633 9090,5640 9106,5649 9122,5659 9137,5670 9150,5683 9163,5696 9174,5711 9184,5727 9193,5743 9200,5760 9205,5778 9210,5796 9212,5814 9212,5833 L 9212,6583 C 9212,6602 9210,6620 9205,6638 9200,6656 9193,6673 9184,6689 9174,6705 9163,6720 9150,6733 9137,6746 9122,6757 9106,6767 9090,6776 9073,6783 9055,6788 9037,6793 9019,6795 9000,6795 L 7305,6795 C 7372,6701 7434,6603 7491,6501 Z M 7491,3500 C 7434,3398 7372,3299 7304,3205 L 9000,3205 C 9019,3205 9037,3207 9055,3212 9073,3217 9090,3224 9106,3233 9122,3243 9137,3254 9150,3267 9163,3280 9174,3295 9184,3311 9193,3327 9200,3344 9205,3362 9210,3380 9212,3398 9212,3417 L 9212,4167 C 9212,4186 9210,4204 9205,4222 9200,4240 9193,4257 9184,4273 9174,4289 9163,4304 9150,4317 9137,4330 9122,4341 9106,4351 9090,4360 9073,4367 9055,4372 9037,4377 9019,4379 9000,4379 L 7814,4379 C 7751,4071 7643,3775 7491,3500 Z M 2510,3500 C 2358,3775 2250,4071 2187,4379 L 1000,4379 C 981,4379 963,4377 945,4372 927,4367 910,4360 894,4351 878,4341 863,4330 850,4317 837,4304 826,4289 816,4273 807,4257 800,4240 795,4222 790,4204 788,4186 788,4167 L 788,3417 C 788,3398 790,3380 795,3362 800,3344 807,3327 816,3311 826,3295 837,3280 850,3267 863,3254 878,3243 894,3233 910,3224 927,3217 945,3212 L 945,3212 C 963,3207 981,3205 1000,3205 L 2697,3205 C 2629,3299 2567,3398 2510,3500 Z M 2510,6501 C 2567,6603 2629,6701 2696,6795 L 1000,6795 C 981,6795 963,6793 945,6788 927,6783 910,6776 894,6767 878,6757 863,6746 850,6733 837,6720 826,6705 816,6689 807,6673 800,6656 795,6638 790,6620 788,6602 788,6583 L 788,5833 C 788,5814 790,5796 795,5778 800,5760 807,5743 816,5727 826,5711 837,5696 850,5683 863,5670 878,5659 894,5649 910,5640 927,5633 945,5628 963,5623 981,5621 1000,5621 L 2187,5621 C 2250,5929 2358,6226 2510,6501 Z M 850,1900 C 837,1887 826,1872 816,1856 807,1840 800,1823 795,1805 790,1787 788,1769 788,1750 L 788,1000 C 788,981 790,963 795,945 800,927 807,910 816,894 826,878 837,863 850,850 863,837 878,826 894,816 910,807 927,800 945,795 963,790 981,788 1000,788 L 9000,788 C 9019,788 9037,790 9055,795 9073,800 9090,807 9106,816 9122,826 9137,837 9150,850 9163,863 9174,878 9184,894 9193,910 9200,927 9205,945 9210,963 9212,981 9212,1000 L 9212,1750 C 9212,1769 9210,1787 9205,1805 9200,1823 9193,1840 9184,1856 9174,1872 9163,1887 9150,1900 9137,1913 9122,1924 9106,1934 9090,1943 9073,1950 9055,1955 9037,1960 9019,1962 9000,1962 L 1000,1962 C 981,1962 963,1960 945,1955 927,1950 910,1943 894,1934 878,1924 863,1913 850,1900 Z M 850,9150 L 850,9150 850,9150 C 837,9137 826,9122 816,9106 807,9090 800,9073 795,9055 790,9037 788,9019 788,9000 L 788,8250 C 788,8231 790,8213 795,8195 800,8177 807,8160 816,8144 826,8128 837,8113 850,8100 863,8087 878,8076 894,8066 910,8057 927,8050 945,8045 963,8040 981,8038 1000,8038 L 9000,8038 C 9019,8038 9037,8040 9055,8045 9073,8050 9090,8057 9106,8066 9122,8076 9137,8087 9150,8100 9163,8113 9174,8128 9184,8144 9193,8160 9200,8177 9205,8195 9210,8213 9212,8231 9212,8250 L 9212,9000 C 9212,9019 9210,9037 9205,9055 9200,9073 9193,9090 9184,9106 9174,9122 9163,9137 9150,9150 9137,9163 9122,9174 9106,9184 9090,9193 9073,9200 9055,9205 9037,9210 9019,9212 9000,9212 L 1000,9212 C 981,9212 963,9210 945,9205 927,9200 910,9193 894,9184 878,9174 863,9163 850,9150 Z "/>
        <path fill="none" stroke="rgb(0,0,0)" stroke-width="212" stroke-linejoin="round" d="M 7491,6501 C 7643,6226 7751,5929 7814,5621 L 9000,5621 C 9019,5621 9037,5623 9055,5628 9073,5633 9090,5640 9106,5649 9122,5659 9137,5670 9150,5683 9163,5696 9174,5711 9184,5727 9193,5743 9200,5760 9205,5778 9210,5796 9212,5814 9212,5833 L 9212,6583 C 9212,6602 9210,6620 9205,6638 9200,6656 9193,6673 9184,6689 9174,6705 9163,6720 9150,6733 9137,6746 9122,6757 9106,6767 9090,6776 9073,6783 9055,6788 9037,6793 9019,6795 9000,6795 L 7305,6795 C 7372,6701 7434,6603 7491,6501 Z "/>
        <path fill="none" stroke="rgb(0,0,0)" stroke-width="212" stroke-linejoin="round" d="M 7491,3500 C 7434,3398 7372,3299 7304,3205 L 9000,3205 C 9019,3205 9037,3207 9055,3212 9073,3217 9090,3224 9106,3233 9122,3243 9137,3254 9150,3267 9163,3280 9174,3295 9184,3311 9193,3327 9200,3344 9205,3362 9210,3380 9212,3398 9212,3417 L 9212,4167 C 9212,4186 9210,4204 9205,4222 9200,4240 9193,4257 9184,4273 9174,4289 9163,4304 9150,4317 9137,4330 9122,4341 9106,4351 9090,4360 9073,4367 9055,4372 9037,4377 9019,4379 9000,4379 L 7814,4379 C 7751,4071 7643,3775 7491,3500 Z "/>
        <path fill="none" stroke="rgb(0,0,0)" stroke-width="212" stroke-linejoin="round" d="M 2510,3500 C 2358,3775 2250,4071 2187,4379 L 1000,4379 C 981,4379 963,4377 945,4372 927,4367 910,4360 894,4351 878,4341 863,4330 850,4317 837,4304 826,4289 816,4273 807,4257 800,4240 795,4222 790,4204 788,4186 788,4167 L 788,3417 C 788,3398 790,3380 795,3362 800,3344 807,3327 816,3311 826,3295 837,3280 850,3267 863,3254 878,3243 894,3233 910,3224 927,3217 945,3212 L 945,3212 C 963,3207 981,3205 1000,3205 L 2697,3205 C 2629,3299 2567,3398 2510,3500 Z "/>
        <path fill="none" stroke="rgb(0,0,0)" stroke-width="212" stroke-linejoin="round" d="M 2510,6501 C 2567,6603 2629,6701 2696,6795 L 1000,6795 C 981,6795 963,6793 945,6788 927,6783 910,6776 894,6767 878,6757 863,6746 850,6733 837,6720 826,6705 816,6689 807,6673 800,6656 795,6638 790,6620 788,6602 788,6583 L 788,5833 C 788,5814 790,5796 795,5778 800,5760 807,5743 816,5727 826,5711 837,5696 850,5683 863,5670 878,5659 894,5649 910,5640 927,5633 945,5628 963,5623 981,5621 1000,5621 L 2187,5621 C 2250,5929 2358,6226 2510,6501 Z "/>
        <path fill="none" stroke="rgb(0,0,0)" stroke-width="212" stroke-linejoin="round" d="M 850,1900 C 837,1887 826,1872 816,1856 807,1840 800,1823 795,1805 790,1787 788,1769 788,1750 L 788,1000 C 788,981 790,963 795,945 800,927 807,910 816,894 826,878 837,863 850,850 863,837 878,826 894,816 910,807 927,800 945,795 963,790 981,788 1000,788 L 9000,788 C 9019,788 9037,790 9055,795 9073,800 9090,807 9106,816 9122,826 9137,837 9150,850 9163,863 9174,878 9184,894 9193,910 9200,927 9205,945 9210,963 9212,981 9212,1000 L 9212,1750 C 9212,1769 9210,1787 9205,1805 9200,1823 9193,1840 9184,1856 9174,1872 9163,1887 9150,1900 9137,1913 9122,1924 9106,1934 9090,1943 9073,1950 9055,1955 9037,1960 9019,1962 9000,1962 L 1000,1962 C 981,1962 963,1960 945,1955 927,1950 910,1943 894,1934 878,1924 863,1913 850,1900 Z "/>
        <path fill="none" stroke="rgb(0,0,0)" stroke-width="212" stroke-linejoin="round" d="M 850,9150 L 850,9150 850,9150 C 837,9137 826,9122 816,9106 807,9090 800,9073 795,9055 790,9037 788,9019 788,9000 L 788,8250 C 788,8231 790,8213 795,8195 800,8177 807,8160 816,8144 826,8128 837,8113 850,8100 863,8087 878,8076 894,8066 910,8057 927,8050 945,8045 963,8040 981,8038 1000,8038 L 9000,8038 C 9019,8038 9037,8040 9055,8045 9073,8050 9090,8057 9106,8066 9122,8076 9137,8087 9150,8100 9163,8113 9174,8128 9184,8144 9193,8160 9200,8177 9205,8195 9210,8213 9212,8231 9212,8250 L 9212,9000 C 9212,9019 9210,9037 9205,9055 9200,9073 9193,9090 9184,9106 9174,9122 9163,9137 9150,9150 9137,9163 9122,9174 9106,9184 9090,9193 9073,9200 9055,9205 9037,9210 9019,9212 9000,9212 L 1000,9212 C 981,9212 963,9210 945,9205 927,9200 910,9193 894,9184 878,9174 863,9163 850,9150 Z "/>
       </g>
      </g>
      <g class="com.sun.star.drawing.CustomShape">
       <g id="id6">
        <rect class="BoundingBox" stroke="none" fill="none" x="1144" y="744" width="713" height="8463"/>
        <path fill="rgb(255,0,0)" stroke="none" d="M 1750,4975 L 1750,9100 1250,9100 1250,850 1750,850 1750,4975 Z "/>
        <path fill="none" stroke="rgb(0,0,0)" stroke-width="212" stroke-linejoin="round" d="M 1750,4975 L 1750,9100 1250,9100 1250,850 1750,850 1750,4975 Z "/>
       </g>
      </g>
     </g>
    </g>
   </g>
  </g>
 </g>
</svg>