<?xml version="1.0" encoding="UTF-8" standalone="no"?>
<svg
   viewBox="0 0 100 100"
   version="1.1"
   id="svg14"
   sodipodi:docname="icon-example-high-quality-vector.svg"
   inkscape:version="1.4 (e7c3feb100, 2024-10-09)"
   xmlns:inkscape="http://www.inkscape.org/namespaces/inkscape"
   xmlns:sodipodi="http://sodipodi.sourceforge.net/DTD/sodipodi-0.dtd"
   xmlns:xlink="http://www.w3.org/1999/xlink"
   xmlns="http://www.w3.org/2000/svg"
   xmlns:svg="http://www.w3.org/2000/svg">
  <defs
     id="defs14" />
  <sodipodi:namedview
     id="namedview14"
     pagecolor="#ffffff"
     bordercolor="#000000"
     borderopacity="0.25"
     inkscape:showpageshadow="2"
     inkscape:pageopacity="0.0"
     inkscape:pagecheckerboard="0"
     inkscape:deskcolor="#d1d1d1"
     inkscape:zoom="2.8319627"
     inkscape:cx="91.632564"
     inkscape:cy="92.338788"
     inkscape:window-width="1920"
     inkscape:window-height="1052"
     inkscape:window-x="0"
     inkscape:window-y="0"
     inkscape:window-maximized="1"
     inkscape:current-layer="a14" />
  <title
     id="title1">SVG logo</title>
  <a
     xlink:href="http://www.w3.org/Graphics/SVG/"
     xlink:title="W3C SVG Working Group home page"
     target="_parent"
     id="a14"
     transform="matrix(0.84,0,0,0.84,5.858386,-33.269481)">
    <rect
       width="100"
       height="100"
       fill="#ff9900"
       rx="4"
       ry="4"
       id="rect1"
       x="1.6814858"
       y="1.6814858" />
    <rect
       width="50"
       height="50"
       fill="#ffb13b"
       rx="4"
       ry="4"
       id="rect2"
       x="1.6814858"
       y="1.6814858" />
    <rect
       width="50"
       height="50"
       x="51.681484"
       y="51.681484"
       fill="#de8500"
       rx="4"
       ry="4"
       id="rect3" />
    <g
       fill="#ff9900"
       id="g10"
       transform="translate(1.6814857,1.6814857)">
      <circle
         cx="50"
         cy="18.4"
         r="18.4"
         id="circle3" />
      <circle
         cx="72.400002"
         cy="27.6"
         r="18.4"
         id="circle4" />
      <circle
         cx="81.599998"
         cy="50"
         r="18.4"
         id="circle5" />
      <circle
         cx="72.400002"
         cy="72.400002"
         r="18.4"
         id="circle6" />
      <circle
         cx="50"
         cy="81.599998"
         r="18.4"
         id="circle7" />
      <circle
         cx="27.6"
         cy="72.400002"
         r="18.4"
         id="circle8" />
      <circle
         cx="18.4"
         cy="50"
         r="18.4"
         id="circle9" />
      <circle
         cx="27.6"
         cy="27.6"
         r="18.4"
         id="circle10" />
    </g>
    <path
       d="m 64.767486,20.066486 c 0,-7.227 -5.859,-13.0860003 -13.1,-13.0860003 -7.235,0 -13.096,5.8590003 -13.096,13.0860003 -5.1,-5.11 -13.395,-5.11 -18.497,0 -5.119,5.12 -5.119,13.408 0,18.524 -7.234,0 -13.1030003,5.859 -13.1030003,13.085 0,7.23 5.8700003,13.098 13.1030003,13.098 -5.119,5.11 -5.119,13.395 0,18.515 5.102,5.104 13.397,5.104 18.497,0 0,7.228 5.86,13.083 13.096,13.083 7.24,0 13.1,-5.855 13.1,-13.083 5.118,5.104 13.416,5.104 18.513,0 5.101,-5.12 5.101,-13.41 0,-18.515 7.216,0 13.081,-5.869 13.081,-13.098 0,-7.227 -5.865,-13.085 -13.081,-13.085 5.101,-5.119 5.101,-13.406 0,-18.524 -5.097,-5.11 -13.393,-5.11 -18.513,0 z"
       id="path10" />
    <path
       fill="#ffffff"
       d="m 56.684486,25.086486 v 14.488 l 10.257,-10.253 c 0,-1.812 0.691,-3.618 2.066,-5.005 2.78,-2.771 7.275,-2.771 10.024,0 2.771,2.766 2.771,7.255 0,10.027 -1.377,1.375 -3.195,2.072 -5.015,2.072 l -10.234,10.248 h 14.489 c 1.29,-1.28 3.054,-2.076 5.011,-2.076 3.9,0 7.078,3.179 7.078,7.087 0,3.906 -3.178,7.088 -7.078,7.088 -1.957,0 -3.721,-0.798 -5.011,-2.072 h -14.49 l 10.229,10.244 c 1.824,0 3.642,0.694 5.015,2.086 2.774,2.759 2.774,7.25 0,10.01 -2.75,2.774 -7.239,2.774 -10.025,0 -1.372,-1.372 -2.064,-3.192 -2.064,-5.003 l -10.255,-10.252 v 14.499 c 1.271,1.276 2.084,3.054 2.084,5.013 0,3.906 -3.177,7.077 -7.098,7.077 -3.919,0 -7.094,-3.167 -7.094,-7.077 0,-1.959 0.811,-3.732 2.081,-5.013 v -14.499 l -10.235,10.252 c 0,1.812 -0.705,3.627 -2.084,5.003 -2.769,2.772 -7.251,2.772 -10.024,0 -2.775,-2.764 -2.775,-7.253 0,-10.012 1.377,-1.39 3.214,-2.086 5.012,-2.086 l 10.257,-10.242 h -14.485 c -1.289,1.276 -3.072,2.072 -5.015,2.072 -3.917,0 -7.096,-3.18 -7.096,-7.088 0,-3.908 3.177,-7.087 7.096,-7.087 1.94,0 3.725,0.796 5.015,2.076 h 14.488 l -10.256,-10.246 c -1.797,0 -3.632,-0.697 -5.012,-2.071 -2.775,-2.772 -2.775,-7.26 0,-10.027 2.773,-2.771 7.256,-2.771 10.027,0 1.375,1.386 2.083,3.195 2.083,5.005 l 10.235,10.252 v -14.488 c -1.27,-1.287 -2.082,-3.053 -2.082,-5.023 0,-3.908 3.175,-7.079 7.096,-7.079 3.919,0 7.097,3.168 7.097,7.079 -0.002,1.972 -0.816,3.735 -2.087,5.021 z"
       id="path11" />
    <g
       id="g14"
       transform="translate(1.6814857,1.6814857)">
      <path
         fill="#000000"
         d="m 5.3,50 h 89.38 v 40 q 0,5 -5,5 H 10.3 q -5,0 -5,-5 z"
         id="path12" />
      <path
         fill="#3f3f3f"
         d="m 14.657,54.211 h 71.394 c 2.908,0 5.312,2.385 5.312,5.315 v 17.91 C 63.779,74.033 36.437,69.311 9.352,69.753 V 59.526 c 10e-4,-2.93 2.391,-5.315 5.305,-5.315 z"
         id="path13" />
      <path
         fill="#ffffff"
         stroke="#000000"
         stroke-width="0.5035"
         d="m 18.312,72.927 c -2.103,-2.107 -3.407,-5.028 -3.407,-8.253 0,-6.445 5.223,-11.672 11.666,-11.672 6.446,0 11.667,5.225 11.667,11.672 h -6.832 c 0,-2.674 -2.168,-4.837 -4.835,-4.837 -2.663,0 -4.838,2.163 -4.838,4.837 0,1.338 0.549,2.536 1.415,3.42 0.883,0.874 2.101,1.405 3.423,1.405 v 0.012 c 3.232,0 6.145,1.309 8.243,3.416 2.118,2.111 3.424,5.034 3.424,8.248 0,6.454 -5.221,11.68 -11.667,11.68 -6.442,0 -11.666,-5.222 -11.666,-11.68 h 6.828 c 0,2.679 2.175,4.835 4.838,4.835 2.667,0 4.835,-2.156 4.835,-4.835 0,-1.329 -0.545,-2.527 -1.429,-3.407 -0.864,-0.88 -2.082,-1.418 -3.406,-1.418 -3.23,0 -6.142,-1.314 -8.259,-3.423 z M 61.588,53.005 53.344,92.854 h -6.85 L 38.236,53.005 h 6.846 l 4.838,23.337 4.835,-23.337 z m 11.667,16.508 h 11.683 v 11.664 c 0,6.452 -5.226,11.678 -11.669,11.678 -6.441,0 -11.666,-5.226 -11.666,-11.678 V 64.676 H 61.586 C 61.586,58.229 66.827,53 73.253,53 c 6.459,0 11.683,5.225 11.683,11.676 h -6.849 c 0,-2.674 -2.152,-4.837 -4.834,-4.837 -2.647,0 -4.82,2.163 -4.82,4.837 v 16.501 c 0,2.675 2.173,4.837 4.82,4.837 2.682,0 4.834,-2.162 4.834,-4.827 v -4.839 h -4.834 z"
         id="path14" />
    </g>
  </a>
  <rect
     style="fill:#ffffff;stroke:#000000;stroke-width:0.6;stroke-linecap:round;stroke-linejoin:round;paint-order:stroke fill markers"
     id="rect14"
     width="35.134644"
     height="34.781532"
     x="60.029041"
     y="59.499371" />
  <path
     d="m 59.842077,97.508112 q -3.5,0 -3.5,-3.5 V 59.008115 q 0,-3.5 3.5,-3.5 h 35 q 3.5,0 3.5,3.5 v 34.999997 q 0,3.5 -3.5,3.5 z m 7.875,-8.75 v -9.625 h 3.5 v 9.625 h 4.375 v -24.5 h -4.375 v 10.5 h -3.5 v -10.5 h -4.375 v 24.5 z m 18.04687,0 q 5.57813,0 5.57813,-5.79687 v -13.01563 q 0,-5.6875 -5.79688,-5.6875 h -6.45312 v 24.5 z m -0.10937,-20.125 q 1.3125,0 1.3125,1.3125 v 13.125 q 0,1.3125 -1.3125,1.3125 h -2.1875 v -15.75 z"
     id="path1"
     style="stroke-width:0.109375" />
</svg>
