<?xml version="1.0" encoding="UTF-8"?>
<!DOCTYPE svg PUBLIC "-//W3C//DTD SVG 1.1//EN" "http://www.w3.org/Graphics/SVG/1.1/DTD/svg11.dtd">
<svg version="1.2" width="100mm" height="100mm" viewBox="0 0 10000 10000" preserveAspectRatio="xMidYMid" fill-rule="evenodd" stroke-width="28.222" stroke-linejoin="round" xmlns="http://www.w3.org/2000/svg" xmlns:ooo="http://xml.openoffice.org/svg/export" xmlns:xlink="http://www.w3.org/1999/xlink" xmlns:presentation="http://sun.com/xmlns/staroffice/presentation" xmlns:smil="http://www.w3.org/2001/SMIL20/" xmlns:anim="urn:oasis:names:tc:opendocument:xmlns:animation:1.0" xmlns:svg="urn:oasis:names:tc:opendocument:xmlns:svg-compatible:1.0" xml:space="preserve">
 <defs class="ClipPathGroup">
  <clipPath id="presentation_clip_path" clipPathUnits="userSpaceOnUse">
   <rect x="0" y="0" width="10000" height="10000"/>
  </clipPath>
  <clipPath id="presentation_clip_path_shrink" clipPathUnits="userSpaceOnUse">
   <rect x="10" y="10" width="9980" height="9980"/>
  </clipPath>
 </defs>
 <defs class="TextShapeIndex">
  <g ooo:slide="id1" ooo:id-list="id3 id4 id5 id6 id7 id8 id9 id10 id11"/>
 </defs>
 <defs class="EmbeddedBulletChars">
  <g id="bullet-char-template-57356" transform="scale(0.00048828125,-0.00048828125)">
   <path d="M 580,1141 L 1163,571 580,0 -4,571 580,1141 Z"/>
  </g>
  <g id="bullet-char-template-57354" transform="scale(0.00048828125,-0.00048828125)">
   <path d="M 8,1128 L 1137,1128 1137,0 8,0 8,1128 Z"/>
  </g>
  <g id="bullet-char-template-10146" transform="scale(0.00048828125,-0.00048828125)">
   <path d="M 174,0 L 602,739 174,1481 1456,739 174,0 Z M 1358,739 L 309,1346 659,739 1358,739 Z"/>
  </g>
  <g id="bullet-char-template-10132" transform="scale(0.00048828125,-0.00048828125)">
   <path d="M 2015,739 L 1276,0 717,0 1260,543 174,543 174,936 1260,936 717,1481 1274,1481 2015,739 Z"/>
  </g>
  <g id="bullet-char-template-10007" transform="scale(0.00048828125,-0.00048828125)">
   <path d="M 0,-2 C -7,14 -16,27 -25,37 L 356,567 C 262,823 215,952 215,954 215,979 228,992 255,992 264,992 276,990 289,987 310,991 331,999 354,1012 L 381,999 492,748 772,1049 836,1024 860,1049 C 881,1039 901,1025 922,1006 886,937 835,863 770,784 769,783 710,716 594,584 L 774,223 C 774,196 753,168 711,139 L 727,119 C 717,90 699,76 672,76 641,76 570,178 457,381 L 164,-76 C 142,-110 111,-127 72,-127 30,-127 9,-110 8,-76 1,-67 -2,-52 -2,-32 -2,-23 -1,-13 0,-2 Z"/>
  </g>
  <g id="bullet-char-template-10004" transform="scale(0.00048828125,-0.00048828125)">
   <path d="M 285,-33 C 182,-33 111,30 74,156 52,228 41,333 41,471 41,549 55,616 82,672 116,743 169,778 240,778 293,778 328,747 346,684 L 369,508 C 377,444 397,411 428,410 L 1163,1116 C 1174,1127 1196,1133 1229,1133 1271,1133 1292,1118 1292,1087 L 1292,965 C 1292,929 1282,901 1262,881 L 442,47 C 390,-6 338,-33 285,-33 Z"/>
  </g>
  <g id="bullet-char-template-9679" transform="scale(0.00048828125,-0.00048828125)">
   <path d="M 813,0 C 632,0 489,54 383,161 276,268 223,411 223,592 223,773 276,916 383,1023 489,1130 632,1184 813,1184 992,1184 1136,1130 1245,1023 1353,916 1407,772 1407,592 1407,412 1353,268 1245,161 1136,54 992,0 813,0 Z"/>
  </g>
  <g id="bullet-char-template-8226" transform="scale(0.00048828125,-0.00048828125)">
   <path d="M 346,457 C 273,457 209,483 155,535 101,586 74,649 74,723 74,796 101,859 155,911 209,963 273,989 346,989 419,989 480,963 531,910 582,859 608,796 608,723 608,648 583,586 532,535 482,483 420,457 346,457 Z"/>
  </g>
  <g id="bullet-char-template-8211" transform="scale(0.00048828125,-0.00048828125)">
   <path d="M -4,459 L 1135,459 1135,606 -4,606 -4,459 Z"/>
  </g>
  <g id="bullet-char-template-61548" transform="scale(0.00048828125,-0.00048828125)">
   <path d="M 173,740 C 173,903 231,1043 346,1159 462,1274 601,1332 765,1332 928,1332 1067,1274 1183,1159 1299,1043 1357,903 1357,740 1357,577 1299,437 1183,322 1067,206 928,148 765,148 601,148 462,206 346,322 231,437 173,577 173,740 Z"/>
  </g>
 </defs>
 <g>
  <g id="id2" class="Master_Slide">
   <g id="bg-id2" class="Background"/>
   <g id="bo-id2" class="BackgroundObjects"/>
  </g>
 </g>
 <g class="SlideGroup">
  <g>
   <g id="container-id1">
    <g id="id1" class="Slide" clip-path="url(#presentation_clip_path)">
     <g class="Page">
      <g class="com.sun.star.drawing.PolyPolygonShape">
       <g id="id3">
        <rect class="BoundingBox" stroke="none" fill="none" x="999" y="999" width="8003" height="8003"/>
        <path fill="rgb(128,128,128)" fill-opacity="0.451" stroke="none" d="M 2333,1000 L 2334,1000 2246,1003 2159,1011 2073,1026 1988,1045 1905,1071 1824,1101 1744,1137 1667,1179 1592,1225 1521,1276 1454,1331 1391,1391 1331,1454 1276,1521 1225,1592 1179,1667 1137,1744 1101,1824 1071,1905 1045,1988 1026,2073 1011,2159 1003,2246 1000,2334 1000,7667 1000,7667 1003,7755 1011,7842 1026,7928 1045,8013 1071,8096 1101,8177 1137,8257 1179,8334 1225,8409 1276,8480 1331,8547 1391,8610 1454,8670 1521,8725 1592,8776 1667,8822 1744,8864 1824,8900 1905,8930 1988,8956 2073,8975 2159,8990 2246,8998 2334,9001 7667,9001 7667,9001 7755,8998 7842,8990 7928,8975 8013,8956 8096,8930 8177,8900 8257,8864 8334,8822 8409,8776 8480,8725 8547,8670 8610,8610 8670,8547 8725,8480 8776,8409 8822,8334 8864,8257 8900,8177 8930,8096 8956,8013 8975,7928 8990,7842 8998,7755 9001,7667 9001,2333 9001,2334 9001,2334 8998,2246 8990,2159 8975,2073 8956,1988 8930,1905 8900,1824 8864,1744 8822,1667 8776,1592 8725,1521 8670,1454 8610,1391 8547,1331 8480,1276 8409,1225 8334,1179 8257,1137 8177,1101 8096,1071 8013,1045 7928,1026 7842,1011 7755,1003 7667,1000 2333,1000 Z"/>
       </g>
      </g>
      <g class="com.sun.star.drawing.CustomShape">
       <g id="id4">
        <rect class="BoundingBox" stroke="none" fill="none" x="500" y="3699" width="1002" height="2603"/>
        <path fill="rgb(8,113,225)" stroke="none" d="M 666,3700 L 667,3700 C 638,3700 609,3708 583,3722 558,3737 537,3758 522,3783 508,3809 500,3838 500,3867 L 500,6134 500,6134 C 500,6163 508,6192 522,6218 537,6243 558,6264 583,6279 609,6293 638,6301 667,6301 L 1334,6301 1334,6301 C 1363,6301 1392,6293 1418,6279 1443,6264 1464,6243 1479,6218 1493,6192 1501,6163 1501,6134 L 1501,3866 1501,3867 1501,3867 C 1501,3838 1493,3809 1479,3783 1464,3758 1443,3737 1418,3722 1392,3708 1363,3700 1334,3700 L 666,3700 Z"/>
       </g>
      </g>
      <g class="com.sun.star.drawing.CustomShape">
       <g id="id5">
        <rect class="BoundingBox" stroke="none" fill="none" x="8500" y="3699" width="1002" height="2603"/>
        <path fill="rgb(8,113,225)" stroke="none" d="M 8666,3700 L 8667,3700 C 8638,3700 8609,3708 8583,3722 8558,3737 8537,3758 8522,3783 8508,3809 8500,3838 8500,3867 L 8500,6134 8500,6134 C 8500,6163 8508,6192 8522,6218 8537,6243 8558,6264 8583,6279 8609,6293 8638,6301 8667,6301 L 9334,6301 9334,6301 C 9363,6301 9392,6293 9418,6279 9443,6264 9464,6243 9479,6218 9493,6192 9501,6163 9501,6134 L 9501,3866 9501,3867 9501,3867 C 9501,3838 9493,3809 9479,3783 9464,3758 9443,3737 9418,3722 9392,3708 9363,3700 9334,3700 L 8666,3700 Z"/>
       </g>
      </g>
      <g class="com.sun.star.drawing.CustomShape">
       <g id="id6">
        <rect class="BoundingBox" stroke="none" fill="none" x="3698" y="8516" width="2603" height="1003"/>
        <path fill="rgb(8,113,225)" stroke="none" d="M 6300,8683 L 6300,8684 C 6300,8655 6292,8626 6278,8600 6263,8575 6242,8554 6217,8539 6191,8525 6162,8517 6133,8517 L 3866,8517 3866,8517 C 3837,8517 3808,8525 3782,8539 3757,8554 3736,8575 3721,8600 3707,8626 3699,8655 3699,8684 L 3699,9351 3699,9351 C 3699,9380 3707,9409 3721,9435 3736,9460 3757,9481 3782,9496 3808,9510 3837,9518 3866,9518 L 6134,9518 6133,9518 6133,9518 C 6162,9518 6191,9510 6217,9496 6242,9481 6263,9460 6278,9435 6292,9409 6300,9380 6300,9351 L 6300,8683 Z"/>
       </g>
      </g>
      <g class="com.sun.star.drawing.CustomShape">
       <g id="id7">
        <rect class="BoundingBox" stroke="none" fill="none" x="3699" y="517" width="2602" height="1002"/>
        <path fill="rgb(8,113,225)" stroke="none" d="M 6300,683 L 6300,684 C 6300,655 6292,626 6278,600 6263,575 6242,554 6217,539 6191,525 6162,517 6133,517 L 3866,517 3866,517 C 3837,517 3808,525 3782,539 3757,554 3736,575 3721,600 3707,626 3699,655 3699,684 L 3699,1351 3699,1351 C 3699,1380 3707,1409 3721,1435 3736,1460 3757,1481 3782,1496 3808,1510 3837,1518 3866,1518 L 6134,1518 6133,1518 6133,1518 C 6162,1518 6191,1510 6217,1496 6242,1481 6263,1460 6278,1435 6292,1409 6300,1380 6300,1351 L 6300,683 Z"/>
       </g>
      </g>
      <g class="com.sun.star.drawing.CustomShape">
       <g id="id8">
        <rect class="BoundingBox" stroke="none" fill="none" x="547" y="584" width="1311" height="1311"/>
        <path fill="rgb(8,113,225)" stroke="none" d="M 1856,585 L 1790,593 1722,604 1656,620 1590,637 1525,658 1461,683 1398,711 1336,741 1275,775 1216,812 1159,851 1102,893 1049,938 997,984 947,1034 901,1086 856,1139 814,1196 775,1253 738,1312 704,1373 674,1435 646,1498 621,1562 600,1627 583,1693 567,1759 556,1827 548,1893 1849,1893 1850,1892 1850,1892 1850,1892 1850,1890 1850,1890 1851,1889 1852,1889 1852,1889 1852,1888 1853,1887 1853,1887 1855,1887 1855,1887 1855,1887 1856,1886 1856,585 Z"/>
        <path fill="none" stroke="rgb(52,101,164)" d="M 1856,585 L 1790,593 1722,604 1656,620 1590,637 1525,658 1461,683 1398,711 1336,741 1275,775 1216,812 1159,851 1102,893 1049,938 997,984 947,1034 901,1086 856,1139 814,1196 775,1253 738,1312 704,1373 674,1435 646,1498 621,1562 600,1627 583,1693 567,1759 556,1827 548,1893 1849,1893 1850,1892 1850,1892 1850,1892 1850,1890 1850,1890 1851,1889 1852,1889 1852,1889 1852,1888 1853,1887 1853,1887 1855,1887 1855,1887 1855,1887 1856,1886 1856,585 Z"/>
       </g>
      </g>
      <g class="com.sun.star.drawing.CustomShape">
       <g id="id9">
        <rect class="BoundingBox" stroke="none" fill="none" x="8142" y="547" width="1312" height="1312"/>
        <path fill="rgb(8,113,225)" stroke="none" d="M 8143,548 L 8210,556 8277,567 8342,582 8409,600 8474,621 8538,646 8601,674 8663,705 8724,738 8783,775 8841,814 8897,856 8950,901 9002,947 9052,997 9098,1049 9144,1103 9185,1159 9225,1217 9261,1275 9295,1336 9326,1399 9354,1461 9378,1526 9400,1591 9417,1657 9432,1724 9443,1790 9452,1857 8149,1857 8150,1856 8149,1855 8149,1855 8149,1854 8149,1854 8149,1853 8148,1852 8148,1852 8147,1852 8147,1851 8147,1851 8145,1851 8145,1851 8144,1850 8144,1851 8143,548 Z"/>
        <path fill="none" stroke="rgb(52,101,164)" d="M 8143,548 L 8210,556 8277,567 8342,582 8409,600 8474,621 8538,646 8601,674 8663,705 8724,738 8783,775 8841,814 8897,856 8950,901 9002,947 9052,997 9098,1049 9144,1103 9185,1159 9225,1217 9261,1275 9295,1336 9326,1399 9354,1461 9378,1526 9400,1591 9417,1657 9432,1724 9443,1790 9452,1857 8149,1857 8150,1856 8149,1855 8149,1855 8149,1854 8149,1854 8149,1853 8148,1852 8148,1852 8147,1852 8147,1851 8147,1851 8145,1851 8145,1851 8144,1850 8144,1851 8143,548 Z"/>
       </g>
      </g>
      <g class="com.sun.star.drawing.CustomShape">
       <g id="id10">
        <rect class="BoundingBox" stroke="none" fill="none" x="546" y="8141" width="1312" height="1312"/>
        <path fill="rgb(8,113,225)" stroke="none" d="M 1856,9451 L 1789,9443 1722,9432 1657,9417 1590,9399 1525,9378 1461,9353 1398,9325 1336,9294 1275,9261 1216,9224 1158,9185 1102,9143 1049,9098 997,9052 947,9002 901,8950 855,8896 814,8840 774,8782 738,8724 704,8663 673,8600 645,8538 621,8473 599,8408 582,8342 567,8275 556,8209 547,8142 1850,8142 1849,8143 1850,8144 1850,8144 1850,8145 1850,8145 1850,8146 1851,8147 1851,8147 1852,8147 1852,8148 1852,8148 1854,8148 1854,8148 1855,8149 1855,8148 1856,9451 Z"/>
        <path fill="none" stroke="rgb(52,101,164)" d="M 1856,9451 L 1789,9443 1722,9432 1657,9417 1590,9399 1525,9378 1461,9353 1398,9325 1336,9294 1275,9261 1216,9224 1158,9185 1102,9143 1049,9098 997,9052 947,9002 901,8950 855,8896 814,8840 774,8782 738,8724 704,8663 673,8600 645,8538 621,8473 599,8408 582,8342 567,8275 556,8209 547,8142 1850,8142 1849,8143 1850,8144 1850,8144 1850,8145 1850,8145 1850,8146 1851,8147 1851,8147 1852,8147 1852,8148 1852,8148 1854,8148 1854,8148 1855,8149 1855,8148 1856,9451 Z"/>
       </g>
      </g>
      <g class="com.sun.star.drawing.CustomShape">
       <g id="id11">
        <rect class="BoundingBox" stroke="none" fill="none" x="8142" y="8141" width="1312" height="1312"/>
        <path fill="rgb(8,113,225)" stroke="none" d="M 8143,9451 L 8210,9443 8277,9432 8342,9417 8409,9399 8474,9378 8538,9353 8601,9325 8663,9294 8724,9261 8783,9224 8841,9185 8897,9143 8950,9098 9002,9052 9052,9002 9098,8950 9144,8896 9185,8840 9225,8782 9261,8724 9295,8663 9326,8600 9354,8538 9378,8473 9400,8408 9417,8342 9432,8275 9443,8209 9452,8142 8149,8142 8150,8143 8149,8144 8149,8144 8149,8145 8149,8145 8149,8146 8148,8147 8148,8147 8147,8147 8147,8148 8147,8148 8145,8148 8145,8148 8144,8149 8144,8148 8143,9451 Z"/>
        <path fill="none" stroke="rgb(52,101,164)" d="M 8143,9451 L 8210,9443 8277,9432 8342,9417 8409,9399 8474,9378 8538,9353 8601,9325 8663,9294 8724,9261 8783,9224 8841,9185 8897,9143 8950,9098 9002,9052 9052,9002 9098,8950 9144,8896 9185,8840 9225,8782 9261,8724 9295,8663 9326,8600 9354,8538 9378,8473 9400,8408 9417,8342 9432,8275 9443,8209 9452,8142 8149,8142 8150,8143 8149,8144 8149,8144 8149,8145 8149,8145 8149,8146 8148,8147 8148,8147 8147,8147 8147,8148 8147,8148 8145,8148 8145,8148 8144,8149 8144,8148 8143,9451 Z"/>
       </g>
      </g>
     </g>
    </g>
   </g>
  </g>
 </g>
</svg>